<svg xmlns="http://www.w3.org/2000/svg" viewBox="0 0 320 180" fill="none">
  <!-- Background -->
  <rect width="320" height="180" fill="#F8FAFC"/>

  <!-- Header area -->
  <rect x="20" y="15" width="120" height="8" rx="2" fill="#4277FF"/>
  <rect x="20" y="28" width="180" height="5" rx="1" fill="#64748B" opacity="0.5"/>

  <!-- Main content area -->
  <rect x="20" y="50" width="140" height="90" rx="4" fill="#E2E8F0"/>

  <!-- Text lines -->
  <rect x="175" y="50" width="125" height="6" rx="1" fill="#334155"/>
  <rect x="175" y="62" width="100" height="4" rx="1" fill="#64748B" opacity="0.6"/>
  <rect x="175" y="72" width="110" height="4" rx="1" fill="#64748B" opacity="0.6"/>

  <!-- Bullet points -->
  <circle cx="180" cy="90" r="3" fill="#4277FF"/>
  <rect x="188" y="88" width="80" height="4" rx="1" fill="#475569"/>

  <circle cx="180" cy="104" r="3" fill="#4277FF"/>
  <rect x="188" y="102" width="90" height="4" rx="1" fill="#475569"/>

  <circle cx="180" cy="118" r="3" fill="#4277FF"/>
  <rect x="188" y="116" width="70" height="4" rx="1" fill="#475569"/>

  <!-- Footer -->
  <rect x="20" y="160" width="60" height="3" rx="1" fill="#94A3B8" opacity="0.5"/>
  <rect x="260" y="160" width="40" height="3" rx="1" fill="#94A3B8" opacity="0.5"/>
</svg>