<svg xmlns="http://www.w3.org/2000/svg" viewBox="0 0 320 180" fill="none">
  <!-- Dark background -->
  <rect width="320" height="180" fill="#0F172A"/>

  <!-- Accent gradient bar -->
  <defs>
    <linearGradient id="accentGrad" x1="0%" y1="0%" x2="100%" y2="0%">
      <stop offset="0%" style="stop-color:#818CF8"/>
      <stop offset="100%" style="stop-color:#6366F1"/>
    </linearGradient>
  </defs>
  <rect x="0" y="0" width="6" height="180" fill="url(#accentGrad)"/>

  <!-- Title -->
  <rect x="30" y="25" width="180" height="12" rx="2" fill="#F1F5F9"/>
  <rect x="30" y="45" width="120" height="5" rx="1" fill="#94A3B8"/>

  <!-- Cards layout -->
  <rect x="30" y="70" width="85" height="55" rx="6" fill="#1E293B"/>
  <rect x="40" y="80" width="35" height="4" rx="1" fill="#818CF8"/>
  <rect x="40" y="90" width="65" height="3" rx="1" fill="#64748B"/>
  <rect x="40" y="97" width="55" height="3" rx="1" fill="#64748B"/>
  <rect x="40" y="104" width="60" height="3" rx="1" fill="#64748B"/>

  <rect x="125" y="70" width="85" height="55" rx="6" fill="#1E293B"/>
  <rect x="135" y="80" width="35" height="4" rx="1" fill="#818CF8"/>
  <rect x="135" y="90" width="65" height="3" rx="1" fill="#64748B"/>
  <rect x="135" y="97" width="55" height="3" rx="1" fill="#64748B"/>
  <rect x="135" y="104" width="60" height="3" rx="1" fill="#64748B"/>

  <rect x="220" y="70" width="85" height="55" rx="6" fill="#1E293B"/>
  <rect x="230" y="80" width="35" height="4" rx="1" fill="#818CF8"/>
  <rect x="230" y="90" width="65" height="3" rx="1" fill="#64748B"/>
  <rect x="230" y="97" width="55" height="3" rx="1" fill="#64748B"/>
  <rect x="230" y="104" width="60" height="3" rx="1" fill="#64748B"/>

  <!-- Footer -->
  <rect x="30" y="155" width="50" height="3" rx="1" fill="#475569"/>
  <rect x="260" y="155" width="30" height="3" rx="1" fill="#475569"/>
</svg>