<svg xmlns="http://www.w3.org/2000/svg" viewBox="0 0 320 180" fill="none">
  <!-- Clean white background -->
  <rect width="320" height="180" fill="#FFFFFF"/>

  <!-- Top border accent -->
  <rect x="0" y="0" width="320" height="4" fill="#059669"/>

  <!-- Logo placeholder -->
  <rect x="20" y="15" width="30" height="12" rx="2" fill="#059669"/>

  <!-- Title -->
  <rect x="20" y="40" width="200" height="10" rx="2" fill="#111827"/>
  <rect x="20" y="55" width="140" height="5" rx="1" fill="#6B7280"/>

  <!-- Two column layout -->
  <rect x="20" y="75" width="135" height="80" rx="4" fill="#F3F4F6"/>
  <rect x="30" y="85" width="60" height="5" rx="1" fill="#059669"/>
  <rect x="30" y="95" width="115" height="3" rx="1" fill="#374151"/>
  <rect x="30" y="102" width="100" height="3" rx="1" fill="#374151"/>
  <rect x="30" y="109" width="110" height="3" rx="1" fill="#374151"/>
  <rect x="30" y="120" width="90" height="3" rx="1" fill="#6B7280"/>
  <rect x="30" y="130" width="100" height="3" rx="1" fill="#6B7280"/>

  <rect x="165" y="75" width="135" height="80" rx="4" fill="#F3F4F6"/>
  <rect x="175" y="85" width="60" height="5" rx="1" fill="#059669"/>
  <rect x="175" y="95" width="115" height="3" rx="1" fill="#374151"/>
  <rect x="175" y="102" width="100" height="3" rx="1" fill="#374151"/>
  <rect x="175" y="109" width="110" height="3" rx="1" fill="#374151"/>
  <rect x="175" y="120" width="90" height="3" rx="1" fill="#6B7280"/>
  <rect x="175" y="130" width="100" height="3" rx="1" fill="#6B7280"/>

  <!-- Footer -->
  <rect x="20" y="165" width="70" height="3" rx="1" fill="#9CA3AF"/>
  <rect x="280" y="165" width="20" height="3" rx="1" fill="#9CA3AF"/>
</svg>