<svg xmlns="http://www.w3.org/2000/svg" xmlns:xlink="http://www.w3.org/1999/xlink" width="1123" zoomAndPan="magnify" viewBox="0 0 842.25 595.499986" height="794" preserveAspectRatio="xMidYMid meet" version="1.0"><defs><g/><clipPath id="193cd483b5"><path d="M 0.160156 0.449219 L 191.3125 0.449219 L 191.3125 229.832031 L 0.160156 229.832031 Z M 0.160156 0.449219 " clip-rule="nonzero"/></clipPath><clipPath id="ca4699609a"><path d="M 110 58 L 665.910156 58 L 665.910156 335.457031 L 110 335.457031 Z M 110 58 " clip-rule="nonzero"/></clipPath><clipPath id="d399e5b9d3"><path d="M 0.0859375 228 L 1 228 L 1 229 L 0.0859375 229 Z M 0.0859375 228 " clip-rule="nonzero"/></clipPath><clipPath id="f2571fd9c0"><rect x="0" width="556" y="0" height="278"/></clipPath><clipPath id="a3b9c0d6ff"><rect x="0" width="666" y="0" height="336"/></clipPath></defs><g transform="matrix(1, 0, 0, 1, 64, 112)"><g clip-path="url(#a3b9c0d6ff)"><g clip-path="url(#193cd483b5)"><path fill="#425af5" d="M 96.058594 0.449219 L 72.519531 87.0625 L 0.183594 102.296875 L 57.972656 142.953125 L 36.300781 229.929688 L 95.605469 151.46875 L 57.53125 190.992188 L 71.453125 135.097656 L 34.304688 108.964844 L 80.804688 99.179688 L 95.929688 43.496094 L 110.742188 93.359375 L 191.4375 65.121094 L 119.09375 78.007812 L 96.058594 0.449219 " fill-opacity="1" fill-rule="nonzero"/></g><g clip-path="url(#ca4699609a)"><g transform="matrix(1, 0, 0, 1, 110, 58)"><g clip-path="url(#f2571fd9c0)"><g fill="#000000" fill-opacity="1"><g transform="translate(3.050157, 150.915186)"><g><path d="M 104.199219 -58.5 C 101.167969 -46.386719 98.003906 -33.449219 95.25 -21.058594 C 92.773438 -33.449219 90.019531 -46.386719 86.992188 -58.636719 L 76.945312 -98.003906 L 57.8125 -98.003906 L 47.761719 -58.636719 C 44.871094 -46.386719 41.980469 -33.585938 39.367188 -21.199219 C 36.75 -33.585938 33.449219 -46.386719 30.417969 -58.5 L 20.234375 -98.003906 L 0.824219 -98.003906 L 28.078125 0 L 48.863281 0 L 59.324219 -40.742188 C 62.214844 -52.03125 64.96875 -63.867188 67.308594 -75.429688 C 69.648438 -63.867188 72.539062 -52.03125 75.292969 -40.742188 L 85.753906 0 L 106.675781 0 L 133.792969 -98.003906 L 114.523438 -98.003906 Z M 104.199219 -58.5 "/></g></g></g><g fill="#000000" fill-opacity="1"><g transform="translate(128.030019, 150.915186)"><g><path d="M 40.054688 1.652344 C 61.664062 1.652344 76.117188 -12.9375 76.117188 -35.511719 C 76.117188 -58.085938 61.664062 -72.675781 40.054688 -72.675781 C 18.445312 -72.675781 3.855469 -58.085938 3.855469 -35.511719 C 3.855469 -12.9375 18.445312 1.652344 40.054688 1.652344 Z M 40.054688 -12.664062 C 28.769531 -12.664062 21.609375 -20.507812 21.609375 -35.511719 C 21.609375 -50.515625 28.769531 -58.363281 40.054688 -58.363281 C 51.203125 -58.363281 58.5 -50.515625 58.5 -35.511719 C 58.5 -20.507812 51.203125 -12.664062 40.054688 -12.664062 Z M 40.054688 -12.664062 "/></g></g></g><g fill="#000000" fill-opacity="1"><g transform="translate(198.365393, 150.915186)"><g><path d="M 45.011719 -72.125 C 34 -72.125 27.253906 -66.34375 23.8125 -58.363281 L 23.8125 -71.023438 L 7.019531 -71.023438 L 7.019531 0 L 24.363281 0 L 24.363281 -36.0625 C 24.363281 -49.550781 32.070312 -55.882812 44.871094 -55.882812 L 49.277344 -55.882812 L 49.277344 -71.851562 C 47.761719 -72.125 46.523438 -72.125 45.011719 -72.125 Z M 45.011719 -72.125 "/></g></g></g><g fill="#000000" fill-opacity="1"><g transform="translate(241.172066, 150.915186)"><g><path d="M 75.292969 0 L 46.800781 -44.183594 L 73.640625 -71.023438 L 52.992188 -71.023438 L 24.089844 -41.570312 L 24.089844 -98.003906 L 7.019531 -98.003906 L 7.019531 0 L 24.089844 0 L 24.089844 -22.296875 L 34.824219 -33.035156 L 55.472656 0 Z M 75.292969 0 "/></g></g></g><g fill="#000000" fill-opacity="1"><g transform="translate(307.240487, 150.915186)"><g><path d="M 46.386719 -72.675781 C 36.476562 -72.675781 29.179688 -68.683594 24.363281 -61.804688 L 24.363281 -98.003906 L 7.019531 -98.003906 L 7.019531 0 L 23.675781 0 L 23.675781 -10.1875 C 28.492188 -2.753906 36.0625 1.652344 46.386719 1.652344 C 65.933594 1.652344 78.183594 -12.9375 78.183594 -35.511719 C 78.183594 -58.085938 65.933594 -72.675781 46.386719 -72.675781 Z M 42.257812 -12.664062 C 30.96875 -12.664062 23.949219 -20.507812 23.949219 -35.511719 C 23.949219 -50.515625 30.96875 -58.363281 42.257812 -58.363281 C 53.542969 -58.363281 60.5625 -51.066406 60.5625 -36.0625 C 60.5625 -21.058594 53.542969 -12.664062 42.257812 -12.664062 Z M 42.257812 -12.664062 "/></g></g></g><g fill="#000000" fill-opacity="1"><g transform="translate(379.640522, 150.915186)"><g><path d="M 40.054688 1.652344 C 61.664062 1.652344 76.117188 -12.9375 76.117188 -35.511719 C 76.117188 -58.085938 61.664062 -72.675781 40.054688 -72.675781 C 18.445312 -72.675781 3.855469 -58.085938 3.855469 -35.511719 C 3.855469 -12.9375 18.445312 1.652344 40.054688 1.652344 Z M 40.054688 -12.664062 C 28.769531 -12.664062 21.609375 -20.507812 21.609375 -35.511719 C 21.609375 -50.515625 28.769531 -58.363281 40.054688 -58.363281 C 51.203125 -58.363281 58.5 -50.515625 58.5 -35.511719 C 58.5 -20.507812 51.203125 -12.664062 40.054688 -12.664062 Z M 40.054688 -12.664062 "/></g></g></g><g fill="#000000" fill-opacity="1"><g transform="translate(449.975916, 150.915186)"><g><path d="M 44.046875 -71.023438 L 30.007812 -71.023438 L 30.007812 -91.671875 L 12.800781 -91.671875 L 12.800781 -71.023438 L 1.789062 -71.023438 L 1.789062 -57.535156 L 12.800781 -57.535156 L 12.800781 -17.617188 C 12.800781 -4.542969 19.957031 0.414062 34.960938 0.414062 C 37.714844 0.414062 41.019531 0.273438 44.046875 0 L 44.046875 -13.351562 L 38.128906 -13.351562 C 32.347656 -13.351562 30.007812 -14.867188 30.007812 -19.546875 L 30.007812 -57.535156 L 44.046875 -57.535156 Z M 44.046875 -71.023438 "/></g></g></g><g fill="#000000" fill-opacity="1"><g transform="translate(487.55212, 150.915186)"><g><path d="M 34.960938 1.925781 C 54.78125 1.925781 66.484375 -6.054688 66.484375 -20.371094 C 66.484375 -32.621094 58.914062 -38.953125 41.84375 -41.980469 L 32.898438 -43.359375 C 25.1875 -44.734375 21.058594 -46.800781 21.058594 -52.03125 C 21.058594 -57.125 25.050781 -60.289062 33.449219 -60.289062 C 42.394531 -60.289062 48.039062 -57.671875 48.453125 -48.589844 L 64.832031 -48.589844 C 64.28125 -63.179688 55.332031 -72.675781 33.449219 -72.675781 C 14.453125 -72.675781 3.992188 -64.554688 3.992188 -51.203125 C 3.992188 -39.089844 11.976562 -32.347656 27.253906 -29.730469 L 35.375 -28.355469 C 46.113281 -26.566406 49.277344 -24.089844 49.277344 -18.996094 C 49.277344 -13.628906 45.285156 -10.460938 35.238281 -10.460938 C 24.914062 -10.460938 20.371094 -13.628906 19.40625 -22.574219 L 2.476562 -22.574219 C 3.578125 -5.367188 14.726562 1.925781 34.960938 1.925781 Z M 34.960938 1.925781 "/></g></g></g><g clip-path="url(#d399e5b9d3)"><g fill="#425af5" fill-opacity="1"><g transform="translate(0.16357, 228.343636)"><g/></g></g></g><g fill="#425af5" fill-opacity="1"><g transform="translate(21.108115, 228.343636)"><g/></g></g><g fill="#425af5" fill-opacity="1"><g transform="translate(42.052659, 228.343636)"><g/></g></g><g fill="#425af5" fill-opacity="1"><g transform="translate(62.997204, 228.343636)"><g/></g></g><g fill="#425af5" fill-opacity="1"><g transform="translate(83.941748, 228.343636)"><g/></g></g><g fill="#425af5" fill-opacity="1"><g transform="translate(104.886293, 228.343636)"><g/></g></g><g fill="#425af5" fill-opacity="1"><g transform="translate(125.830838, 228.343636)"><g/></g></g><g fill="#425af5" fill-opacity="1"><g transform="translate(146.775382, 228.343636)"><g/></g></g><g fill="#425af5" fill-opacity="1"><g transform="translate(167.719927, 228.343636)"><g/></g></g><g fill="#425af5" fill-opacity="1"><g transform="translate(188.683168, 228.343636)"><g><path d="M 37.25 -34.234375 C 38.613281 -36.960938 39.976562 -39.671875 41.34375 -42.359375 C 42.707031 -45.054688 43.9375 -47.570312 45.03125 -49.90625 C 46.132812 -52.238281 47.078125 -54.328125 47.859375 -56.171875 C 48.640625 -58.023438 49.09375 -59.503906 49.21875 -60.609375 C 49.351562 -61.773438 49.253906 -62.773438 48.921875 -63.609375 C 48.597656 -64.453125 48.0625 -65.132812 47.3125 -65.65625 C 46.570312 -66.175781 45.695312 -66.582031 44.6875 -66.875 C 43.6875 -67.164062 42.570312 -67.34375 41.34375 -67.40625 C 39.195312 -67.539062 36.648438 -67.492188 33.703125 -67.265625 C 30.753906 -67.035156 27.914062 -66.613281 25.1875 -66 C 22.46875 -65.382812 20.117188 -64.523438 18.140625 -63.421875 C 16.160156 -62.316406 15.109375 -60.957031 14.984375 -59.34375 C 14.921875 -58.425781 15.082031 -57.613281 15.46875 -56.90625 C 15.789062 -56.320312 16.390625 -55.769531 17.265625 -55.25 C 18.140625 -54.726562 19.453125 -54.535156 21.203125 -54.671875 C 21.523438 -54.671875 21.914062 -54.703125 22.375 -54.765625 C 22.757812 -54.828125 23.242188 -54.90625 23.828125 -55 C 24.410156 -55.101562 25.09375 -55.253906 25.875 -55.453125 L 21.109375 -49.03125 C 20.203125 -47.726562 19.226562 -46.945312 18.1875 -46.6875 C 17.15625 -46.425781 16.21875 -46.363281 15.375 -46.5 C 14.914062 -46.5625 14.019531 -46.785156 12.6875 -47.171875 C 11.363281 -47.566406 10.035156 -48.148438 8.703125 -48.921875 C 7.378906 -49.703125 6.226562 -50.753906 5.25 -52.078125 C 4.28125 -53.410156 3.890625 -55.082031 4.078125 -57.09375 C 4.335938 -59.4375 5.34375 -61.59375 7.09375 -63.5625 C 8.851562 -65.539062 11.300781 -67.242188 14.4375 -68.671875 C 17.582031 -70.097656 21.34375 -71.203125 25.71875 -71.984375 C 30.101562 -72.765625 35.050781 -73.15625 40.5625 -73.15625 C 44.71875 -73.15625 48.023438 -72.71875 50.484375 -71.84375 C 52.953125 -70.96875 54.753906 -69.832031 55.890625 -68.4375 C 57.023438 -67.039062 57.570312 -65.414062 57.53125 -63.5625 C 57.5 -61.71875 57.097656 -59.820312 56.328125 -57.875 C 55.929688 -56.96875 55.359375 -55.71875 54.609375 -54.125 C 53.867188 -52.539062 52.976562 -50.691406 51.9375 -48.578125 C 50.90625 -46.472656 49.804688 -44.15625 48.640625 -41.625 C 47.472656 -39.101562 46.304688 -36.476562 45.140625 -33.75 C 46.890625 -33.625 48.492188 -33.460938 49.953125 -33.265625 C 51.410156 -33.066406 52.5625 -32.90625 53.40625 -32.78125 C 54.375 -32.519531 54.695312 -32.097656 54.375 -31.515625 C 53.789062 -30.347656 53.222656 -29.472656 52.671875 -28.890625 C 52.117188 -28.304688 51.519531 -27.898438 50.875 -27.671875 C 50.226562 -27.441406 49.515625 -27.34375 48.734375 -27.375 C 47.953125 -27.414062 47.078125 -27.46875 46.109375 -27.53125 C 45.523438 -27.53125 44.941406 -27.546875 44.359375 -27.578125 C 43.773438 -27.609375 43.160156 -27.65625 42.515625 -27.71875 C 41.273438 -24.800781 40.085938 -21.914062 38.953125 -19.0625 C 37.816406 -16.207031 36.78125 -13.5 35.84375 -10.9375 C 34.90625 -8.375 34.078125 -6.023438 33.359375 -3.890625 C 32.648438 -1.753906 32.164062 0.0234375 31.90625 1.453125 C 31.519531 3.460938 31.226562 5.34375 31.03125 7.09375 C 30.90625 8.59375 30.84375 10.148438 30.84375 11.765625 C 30.84375 13.390625 31.097656 14.6875 31.609375 15.65625 C 30.253906 16.050781 29.070312 16.375 28.0625 16.625 C 27.0625 16.882812 26.203125 17.082031 25.484375 17.21875 C 24.703125 17.414062 24.054688 17.578125 23.546875 17.703125 C 21.722656 18.160156 20.4375 18.113281 19.6875 17.5625 C 18.945312 17.007812 18.738281 15.695312 19.0625 13.625 C 19.195312 12.195312 19.410156 10.585938 19.703125 8.796875 C 19.992188 7.015625 20.445312 5.003906 21.0625 2.765625 C 21.675781 0.535156 22.484375 -1.957031 23.484375 -4.71875 C 24.492188 -7.476562 25.773438 -10.539062 27.328125 -13.90625 C 28.242188 -15.851562 29.285156 -18.007812 30.453125 -20.375 C 31.617188 -22.738281 32.847656 -25.285156 34.140625 -28.015625 C 31.285156 -28.015625 28.207031 -27.820312 24.90625 -27.4375 C 23.082031 -27.175781 21.296875 -26.882812 19.546875 -26.5625 C 18.054688 -26.226562 16.453125 -25.851562 14.734375 -25.4375 C 13.015625 -25.019531 11.410156 -24.550781 9.921875 -24.03125 C 9.722656 -24.550781 9.609375 -25.066406 9.578125 -25.578125 C 9.546875 -26.097656 9.5625 -26.585938 9.625 -27.046875 C 9.695312 -27.492188 9.796875 -27.945312 9.921875 -28.40625 C 10.046875 -28.851562 10.238281 -29.304688 10.5 -29.765625 C 10.894531 -30.546875 11.515625 -31.519531 12.359375 -32.6875 C 15.398438 -33.070312 18.316406 -33.363281 21.109375 -33.5625 C 23.898438 -33.757812 26.363281 -33.921875 28.5 -34.046875 C 31.03125 -34.171875 33.398438 -34.234375 35.609375 -34.234375 C 35.929688 -34.304688 36.203125 -34.320312 36.421875 -34.28125 C 36.648438 -34.25 36.925781 -34.234375 37.25 -34.234375 Z M 37.25 -34.234375 "/></g></g></g><g fill="#425af5" fill-opacity="1"><g transform="translate(240.074443, 228.343636)"><g><path d="M 28.796875 -15.46875 C 28.148438 -13 27.273438 -10.691406 26.171875 -8.546875 C 25.066406 -6.410156 23.75 -4.566406 22.21875 -3.015625 C 20.695312 -1.460938 18.976562 -0.25 17.0625 0.625 C 15.15625 1.507812 13.066406 1.953125 10.796875 1.953125 C 8.140625 1.953125 6.046875 1.382812 4.515625 0.25 C 2.992188 -0.882812 1.859375 -2.296875 1.109375 -3.984375 C 0.367188 -5.671875 -0.078125 -7.519531 -0.234375 -9.53125 C -0.398438 -11.539062 -0.484375 -13.421875 -0.484375 -15.171875 C -0.484375 -16.398438 -0.335938 -17.757812 -0.046875 -19.25 C 0.242188 -20.75 0.648438 -22.273438 1.171875 -23.828125 C 1.691406 -25.390625 2.351562 -26.945312 3.15625 -28.5 C 3.96875 -30.0625 4.925781 -31.488281 6.03125 -32.78125 C 6.414062 -33.882812 7.015625 -34.859375 7.828125 -35.703125 C 8.640625 -36.546875 9.578125 -37.242188 10.640625 -37.796875 C 11.710938 -38.347656 12.863281 -38.769531 14.09375 -39.0625 C 15.332031 -39.351562 16.535156 -39.5 17.703125 -39.5 C 17.898438 -39.5 18.078125 -39.460938 18.234375 -39.390625 C 18.398438 -39.328125 18.582031 -39.265625 18.78125 -39.203125 C 19.613281 -39.140625 20.660156 -38.816406 21.921875 -38.234375 C 23.191406 -37.648438 24.425781 -36.773438 25.625 -35.609375 C 26.832031 -34.441406 27.851562 -32.960938 28.6875 -31.171875 C 29.53125 -29.390625 29.953125 -27.234375 29.953125 -24.703125 C 29.953125 -24.179688 29.921875 -23.546875 29.859375 -22.796875 C 29.796875 -22.054688 29.734375 -21.429688 29.671875 -20.921875 C 31.160156 -21.503906 32.710938 -22.210938 34.328125 -23.046875 C 35.953125 -23.890625 37.523438 -24.78125 39.046875 -25.71875 C 40.578125 -26.664062 41.988281 -27.625 43.28125 -28.59375 C 44.582031 -29.570312 45.625 -30.445312 46.40625 -31.21875 C 47.050781 -31.800781 47.597656 -32.125 48.046875 -32.1875 C 48.503906 -32.257812 48.828125 -32.132812 49.015625 -31.8125 C 49.210938 -31.488281 49.242188 -31.035156 49.109375 -30.453125 C 48.984375 -29.867188 48.628906 -29.21875 48.046875 -28.5 C 47.722656 -28.113281 46.894531 -27.335938 45.5625 -26.171875 C 44.238281 -25.003906 42.664062 -23.738281 40.84375 -22.375 C 39.03125 -21.007812 37.054688 -19.675781 34.921875 -18.375 C 32.785156 -17.082031 30.742188 -16.113281 28.796875 -15.46875 Z M 12.359375 -30.25 C 12.160156 -29.664062 12.0625 -29.050781 12.0625 -28.40625 C 12.0625 -27.363281 12.125 -26.273438 12.25 -25.140625 C 12.382812 -24.003906 12.707031 -22.984375 13.21875 -22.078125 C 13.738281 -21.171875 14.566406 -20.410156 15.703125 -19.796875 C 16.835938 -19.179688 18.410156 -18.875 20.421875 -18.875 C 20.753906 -18.875 21.082031 -18.890625 21.40625 -18.921875 C 21.726562 -18.953125 22.050781 -19 22.375 -19.0625 C 22.570312 -19.90625 22.75 -20.664062 22.90625 -21.34375 C 23.070312 -22.03125 23.15625 -22.632812 23.15625 -23.15625 C 23.28125 -24.382812 23.273438 -25.644531 23.140625 -26.9375 C 23.015625 -28.238281 22.773438 -29.421875 22.421875 -30.484375 C 22.066406 -31.554688 21.613281 -32.429688 21.0625 -33.109375 C 20.507812 -33.796875 19.84375 -34.140625 19.0625 -34.140625 C 17.832031 -34.140625 16.648438 -33.796875 15.515625 -33.109375 C 14.378906 -32.429688 13.328125 -31.476562 12.359375 -30.25 Z M 6.125 -13.125 C 6.125 -11.957031 6.1875 -10.804688 6.3125 -9.671875 C 6.445312 -8.535156 6.707031 -7.53125 7.09375 -6.65625 C 7.488281 -5.78125 8.007812 -5.066406 8.65625 -4.515625 C 9.300781 -3.972656 10.144531 -3.703125 11.1875 -3.703125 C 12.351562 -3.703125 13.421875 -3.972656 14.390625 -4.515625 C 15.367188 -5.066406 16.242188 -5.78125 17.015625 -6.65625 C 17.796875 -7.53125 18.492188 -8.535156 19.109375 -9.671875 C 19.722656 -10.804688 20.257812 -11.992188 20.71875 -13.234375 C 20.257812 -13.160156 19.820312 -13.109375 19.40625 -13.078125 C 18.988281 -13.046875 18.519531 -13.03125 18 -13.03125 C 15.53125 -13.03125 13.40625 -13.757812 11.625 -15.21875 C 9.84375 -16.675781 8.460938 -18.539062 7.484375 -20.8125 C 7.097656 -19.457031 6.773438 -18.128906 6.515625 -16.828125 C 6.253906 -15.535156 6.125 -14.300781 6.125 -13.125 Z M 6.125 -13.125 "/></g></g></g><g fill="#425af5" fill-opacity="1"><g transform="translate(272.30276, 228.343636)"><g><path d="M -3.703125 -0.484375 C -4.148438 0.222656 -4.648438 0.691406 -5.203125 0.921875 C -5.753906 1.148438 -6.238281 1.179688 -6.65625 1.015625 C -7.082031 0.859375 -7.359375 0.519531 -7.484375 0 C -7.617188 -0.519531 -7.488281 -1.171875 -7.09375 -1.953125 C -6.90625 -2.335938 -6.46875 -3.207031 -5.78125 -4.5625 C -5.101562 -5.925781 -4.296875 -7.566406 -3.359375 -9.484375 C -2.421875 -11.398438 -1.398438 -13.472656 -0.296875 -15.703125 C 0.804688 -17.941406 1.859375 -20.066406 2.859375 -22.078125 C 3.867188 -24.085938 4.796875 -25.882812 5.640625 -27.46875 C 6.484375 -29.0625 7.097656 -30.21875 7.484375 -30.9375 C 6.773438 -31.582031 6.289062 -32.050781 6.03125 -32.34375 C 5.769531 -32.632812 5.578125 -33.265625 5.453125 -34.234375 C 5.316406 -35.078125 5.507812 -36.179688 6.03125 -37.546875 C 6.550781 -38.910156 7.234375 -40.222656 8.078125 -41.484375 C 8.921875 -42.753906 9.859375 -43.84375 10.890625 -44.75 C 11.929688 -45.65625 12.9375 -46.109375 13.90625 -46.109375 C 15.726562 -46.109375 17.007812 -45.523438 17.75 -44.359375 C 18.5 -43.191406 18.9375 -41.992188 19.0625 -40.765625 C 19.195312 -39.921875 19.132812 -38.847656 18.875 -37.546875 C 18.613281 -36.253906 18.125 -35.085938 17.40625 -34.046875 C 17.601562 -33.921875 17.863281 -33.773438 18.1875 -33.609375 C 18.507812 -33.441406 19.03125 -33.359375 19.75 -33.359375 C 20.78125 -33.359375 21.503906 -33.421875 21.921875 -33.546875 C 22.347656 -33.679688 23.015625 -33.75 23.921875 -33.75 C 25.023438 -33.75 25.929688 -33.472656 26.640625 -32.921875 C 27.359375 -32.367188 27.941406 -31.6875 28.390625 -30.875 C 28.847656 -30.070312 29.191406 -29.195312 29.421875 -28.25 C 29.648438 -27.3125 29.796875 -26.457031 29.859375 -25.6875 C 30.054688 -24.0625 29.632812 -22.375 28.59375 -20.625 C 27.5625 -18.875 26.300781 -16.960938 24.8125 -14.890625 C 23.894531 -13.585938 22.984375 -12.125 22.078125 -10.5 C 21.171875 -8.882812 20.785156 -7.425781 20.921875 -6.125 C 21.046875 -5.28125 21.269531 -4.597656 21.59375 -4.078125 C 21.914062 -3.566406 22.820312 -3.3125 24.3125 -3.3125 C 25.414062 -3.3125 26.628906 -3.710938 27.953125 -4.515625 C 29.285156 -5.328125 30.648438 -6.363281 32.046875 -7.625 C 33.441406 -8.894531 34.820312 -10.289062 36.1875 -11.8125 C 37.550781 -13.34375 38.816406 -14.835938 39.984375 -16.296875 C 41.148438 -17.753906 42.132812 -19.066406 42.9375 -20.234375 C 43.75 -21.398438 44.351562 -22.242188 44.75 -22.765625 C 45.070312 -23.285156 45.492188 -23.640625 46.015625 -23.828125 C 46.535156 -24.023438 46.988281 -24.023438 47.375 -23.828125 C 47.757812 -23.640625 48 -23.253906 48.09375 -22.671875 C 48.195312 -22.085938 47.957031 -21.304688 47.375 -20.328125 C 46.988281 -19.679688 46.320312 -18.644531 45.375 -17.21875 C 44.4375 -15.789062 43.300781 -14.203125 41.96875 -12.453125 C 40.644531 -10.703125 39.171875 -8.898438 37.546875 -7.046875 C 35.921875 -5.203125 34.21875 -3.515625 32.4375 -1.984375 C 30.65625 -0.460938 28.875 0.78125 27.09375 1.75 C 25.3125 2.71875 23.609375 3.203125 21.984375 3.203125 C 20.296875 3.203125 18.898438 2.878906 17.796875 2.234375 C 16.691406 1.585938 15.800781 0.796875 15.125 -0.140625 C 14.445312 -1.085938 13.960938 -2.128906 13.671875 -3.265625 C 13.378906 -4.398438 13.265625 -5.453125 13.328125 -6.421875 C 13.390625 -7.203125 13.597656 -8.03125 13.953125 -8.90625 C 14.316406 -9.78125 14.738281 -10.6875 15.21875 -11.625 C 15.707031 -12.5625 16.226562 -13.5 16.78125 -14.4375 C 17.332031 -15.382812 17.832031 -16.3125 18.28125 -17.21875 C 19.382812 -19.09375 20.273438 -20.695312 20.953125 -22.03125 C 21.640625 -23.363281 21.984375 -24.484375 21.984375 -25.390625 C 21.984375 -25.972656 21.851562 -26.488281 21.59375 -26.9375 C 21.332031 -27.394531 20.910156 -27.625 20.328125 -27.625 C 19.941406 -27.625 19.664062 -27.609375 19.5 -27.578125 C 19.34375 -27.546875 19.179688 -27.53125 19.015625 -27.53125 C 18.859375 -27.53125 18.632812 -27.515625 18.34375 -27.484375 C 18.050781 -27.453125 17.609375 -27.4375 17.015625 -27.4375 C 16.179688 -27.4375 15.46875 -27.5625 14.875 -27.8125 C 14.289062 -28.070312 13.742188 -28.269531 13.234375 -28.40625 C 12.972656 -27.945312 12.382812 -26.972656 11.46875 -25.484375 C 10.5625 -23.992188 9.507812 -22.242188 8.3125 -20.234375 C 7.113281 -18.222656 5.847656 -16.113281 4.515625 -13.90625 C 3.191406 -11.707031 1.945312 -9.648438 0.78125 -7.734375 C -0.382812 -5.816406 -1.375 -4.191406 -2.1875 -2.859375 C -3 -1.535156 -3.503906 -0.742188 -3.703125 -0.484375 Z M -3.703125 -0.484375 "/></g></g></g><g fill="#425af5" fill-opacity="1"><g transform="translate(305.795638, 228.343636)"><g><path d="M 45.328125 -4.46875 C 45.328125 -5.832031 45.472656 -7.390625 45.765625 -9.140625 C 46.054688 -10.890625 46.425781 -12.6875 46.875 -14.53125 C 47.332031 -16.382812 47.785156 -18.1875 48.234375 -19.9375 C 48.691406 -21.6875 49.085938 -23.242188 49.421875 -24.609375 C 49.804688 -26.296875 49.769531 -27.59375 49.3125 -28.5 C 48.863281 -29.40625 48.085938 -29.859375 46.984375 -29.859375 C 46.460938 -29.859375 45.441406 -29.40625 43.921875 -28.5 C 42.398438 -27.59375 40.742188 -26.019531 38.953125 -23.78125 C 37.171875 -21.539062 35.421875 -18.523438 33.703125 -14.734375 C 31.984375 -10.941406 30.640625 -6.128906 29.671875 -0.296875 C 28.441406 0.359375 27.273438 0.78125 26.171875 0.96875 C 25.585938 1.101562 25.066406 1.203125 24.609375 1.265625 C 23.316406 1.328125 22.472656 1.113281 22.078125 0.625 C 21.691406 0.144531 21.757812 -1.035156 22.28125 -2.921875 C 22.539062 -3.828125 23.007812 -5.285156 23.6875 -7.296875 C 24.363281 -9.304688 25.023438 -11.492188 25.671875 -13.859375 C 26.328125 -16.222656 26.894531 -18.585938 27.375 -20.953125 C 27.863281 -23.328125 28.109375 -25.390625 28.109375 -27.140625 C 28.109375 -28.367188 27.894531 -29.207031 27.46875 -29.65625 C 27.050781 -30.113281 26.457031 -30.34375 25.6875 -30.34375 C 25.101562 -30.34375 24.128906 -30.019531 22.765625 -29.375 C 21.398438 -28.726562 19.875 -27.460938 18.1875 -25.578125 C 16.5 -23.703125 14.828125 -21.09375 13.171875 -17.75 C 11.523438 -14.414062 10.117188 -10.085938 8.953125 -4.765625 L 8.953125 -4.96875 C 8.816406 -4.445312 8.6875 -3.925781 8.5625 -3.40625 C 8.425781 -2.945312 8.328125 -2.457031 8.265625 -1.9375 C 8.203125 -1.425781 8.101562 -0.941406 7.96875 -0.484375 L 3.109375 1.65625 C 2.785156 1.78125 2.378906 1.875 1.890625 1.9375 C 1.410156 2.007812 0.957031 1.929688 0.53125 1.703125 C 0.113281 1.472656 -0.191406 1 -0.390625 0.28125 C -0.585938 -0.425781 -0.519531 -1.492188 -0.1875 -2.921875 L 5.9375 -28.3125 C 6.125 -29.15625 6.285156 -29.960938 6.421875 -30.734375 C 6.546875 -31.453125 6.625 -32.148438 6.65625 -32.828125 C 6.695312 -33.515625 6.648438 -34.082031 6.515625 -34.53125 C 7.617188 -35.050781 8.59375 -35.441406 9.4375 -35.703125 C 10.28125 -35.960938 10.960938 -36.15625 11.484375 -36.28125 C 12.128906 -36.476562 12.675781 -36.578125 13.125 -36.578125 C 15.207031 -36.578125 15.890625 -34.789062 15.171875 -31.21875 C 14.910156 -30.1875 14.519531 -28.664062 14 -26.65625 C 15.238281 -28.207031 16.550781 -29.679688 17.9375 -31.078125 C 19.332031 -32.472656 20.742188 -33.722656 22.171875 -34.828125 C 23.597656 -35.929688 25.039062 -36.804688 26.5 -37.453125 C 27.96875 -38.097656 29.414062 -38.421875 30.84375 -38.421875 C 31.9375 -38.421875 32.859375 -38.097656 33.609375 -37.453125 C 34.359375 -36.804688 34.941406 -35.945312 35.359375 -34.875 C 35.773438 -33.800781 36.015625 -32.535156 36.078125 -31.078125 C 36.148438 -29.617188 36.085938 -28.113281 35.890625 -26.5625 C 36.929688 -27.914062 38.082031 -29.289062 39.34375 -30.6875 C 40.613281 -32.082031 41.941406 -33.332031 43.328125 -34.4375 C 44.722656 -35.539062 46.164062 -36.445312 47.65625 -37.15625 C 49.15625 -37.875 50.648438 -38.234375 52.140625 -38.234375 C 53.890625 -38.234375 55.234375 -37.710938 56.171875 -36.671875 C 57.117188 -35.628906 57.769531 -34.296875 58.125 -32.671875 C 58.476562 -31.054688 58.570312 -29.304688 58.40625 -27.421875 C 58.25 -25.546875 57.976562 -23.734375 57.59375 -21.984375 L 54.28125 -8.859375 C 53.5625 -5.609375 54.242188 -3.984375 56.328125 -3.984375 C 57.941406 -3.984375 59.722656 -4.757812 61.671875 -6.3125 C 63.617188 -7.875 65.515625 -9.722656 67.359375 -11.859375 C 69.210938 -14.003906 70.945312 -16.210938 72.5625 -18.484375 C 74.1875 -20.753906 75.550781 -22.566406 76.65625 -23.921875 C 77.039062 -24.378906 77.441406 -24.640625 77.859375 -24.703125 C 78.285156 -24.773438 78.644531 -24.695312 78.9375 -24.46875 C 79.226562 -24.238281 79.390625 -23.863281 79.421875 -23.34375 C 79.453125 -22.820312 79.273438 -22.175781 78.890625 -21.40625 C 77.585938 -19.132812 75.992188 -16.617188 74.109375 -13.859375 C 72.234375 -11.109375 70.175781 -8.53125 67.9375 -6.125 C 65.707031 -3.726562 63.328125 -1.71875 60.796875 -0.09375 C 58.265625 1.519531 55.640625 2.328125 52.921875 2.328125 C 52.015625 2.328125 51.117188 2.226562 50.234375 2.03125 C 49.359375 1.84375 48.546875 1.488281 47.796875 0.96875 C 47.054688 0.445312 46.457031 -0.25 46 -1.125 C 45.550781 -2 45.328125 -3.113281 45.328125 -4.46875 Z M 45.328125 -4.46875 "/></g></g></g><g fill="#425af5" fill-opacity="1"><g transform="translate(370.31889, 228.343636)"><g><path d="M 49.90625 -19.359375 C 49 -18.054688 47.832031 -16.445312 46.40625 -14.53125 C 44.976562 -12.625 43.5 -10.710938 41.96875 -8.796875 C 40.445312 -6.890625 38.957031 -5.140625 37.5 -3.546875 C 36.039062 -1.960938 34.828125 -0.84375 33.859375 -0.1875 C 33.203125 0.195312 32.453125 0.519531 31.609375 0.78125 C 30.765625 1.039062 29.90625 1.203125 29.03125 1.265625 C 28.15625 1.328125 27.328125 1.273438 26.546875 1.109375 C 25.773438 0.953125 25.097656 0.679688 24.515625 0.296875 C 23.929688 -0.160156 23.441406 -0.8125 23.046875 -1.65625 C 22.722656 -2.363281 22.414062 -3.300781 22.125 -4.46875 C 21.832031 -5.632812 21.722656 -7.097656 21.796875 -8.859375 C 20.234375 -6.265625 18.507812 -4.269531 16.625 -2.875 C 14.75 -1.476562 12.96875 -0.457031 11.28125 0.1875 C 9.332031 0.90625 7.390625 1.328125 5.453125 1.453125 C 4.535156 1.453125 3.554688 1.144531 2.515625 0.53125 C 1.484375 -0.0820312 0.613281 -1.050781 -0.09375 -2.375 C -0.8125 -3.707031 -1.265625 -5.425781 -1.453125 -7.53125 C -1.648438 -9.644531 -1.394531 -12.160156 -0.6875 -15.078125 C 0.226562 -19.035156 1.671875 -22.632812 3.640625 -25.875 C 5.617188 -29.113281 7.773438 -31.882812 10.109375 -34.1875 C 12.453125 -36.488281 14.753906 -38.222656 17.015625 -39.390625 C 19.285156 -40.554688 21.171875 -41.078125 22.671875 -40.953125 C 24.421875 -40.628906 25.84375 -40.109375 26.9375 -39.390625 C 27.851562 -38.742188 28.457031 -37.785156 28.75 -36.515625 C 29.039062 -35.253906 28.503906 -33.585938 27.140625 -31.515625 C 28.046875 -31.710938 28.804688 -31.84375 29.421875 -31.90625 C 30.035156 -31.96875 30.507812 -32 30.84375 -32 C 31.226562 -32 31.484375 -31.96875 31.609375 -31.90625 C 31.679688 -31.78125 31.71875 -31.503906 31.71875 -31.078125 C 31.71875 -30.660156 31.617188 -29.898438 31.421875 -28.796875 C 31.222656 -27.691406 30.925781 -26.195312 30.53125 -24.3125 C 30.144531 -22.4375 29.628906 -20.003906 28.984375 -17.015625 C 28.859375 -16.429688 28.742188 -15.894531 28.640625 -15.40625 C 28.546875 -14.925781 28.445312 -14.441406 28.34375 -13.953125 C 28.25 -13.472656 28.140625 -12.90625 28.015625 -12.25 C 27.890625 -11.601562 27.726562 -10.796875 27.53125 -9.828125 C 27.46875 -9.242188 27.453125 -8.609375 27.484375 -7.921875 C 27.515625 -7.242188 27.625 -6.613281 27.8125 -6.03125 C 28.007812 -5.445312 28.316406 -4.972656 28.734375 -4.609375 C 29.160156 -4.253906 29.765625 -4.078125 30.546875 -4.078125 C 31.191406 -4.078125 32.03125 -4.484375 33.0625 -5.296875 C 34.101562 -6.109375 35.207031 -7.144531 36.375 -8.40625 C 37.539062 -9.675781 38.753906 -11.070312 40.015625 -12.59375 C 41.285156 -14.125 42.472656 -15.597656 43.578125 -17.015625 C 44.679688 -18.441406 45.671875 -19.707031 46.546875 -20.8125 C 47.421875 -21.914062 48.050781 -22.726562 48.4375 -23.25 C 48.957031 -23.832031 49.476562 -24.171875 50 -24.265625 C 50.519531 -24.367188 50.910156 -24.222656 51.171875 -23.828125 C 51.429688 -23.441406 51.476562 -22.859375 51.3125 -22.078125 C 51.144531 -21.304688 50.675781 -20.398438 49.90625 -19.359375 Z M 21.40625 -15.078125 C 21.726562 -16.367188 22.113281 -17.890625 22.5625 -19.640625 C 23.019531 -21.398438 23.410156 -23.085938 23.734375 -24.703125 C 24.054688 -26.328125 24.296875 -27.671875 24.453125 -28.734375 C 24.617188 -29.804688 24.570312 -30.3125 24.3125 -30.25 C 23.988281 -30.1875 23.632812 -30.085938 23.25 -29.953125 C 22.925781 -29.828125 22.503906 -29.734375 21.984375 -29.671875 C 21.460938 -29.609375 20.941406 -29.507812 20.421875 -29.375 C 20.941406 -30.414062 21.25 -31.273438 21.34375 -31.953125 C 21.445312 -32.628906 21.46875 -33.164062 21.40625 -33.5625 C 21.332031 -34.007812 21.203125 -34.363281 21.015625 -34.625 C 20.296875 -35.207031 19.046875 -34.738281 17.265625 -33.21875 C 15.484375 -31.695312 13.425781 -28.894531 11.09375 -24.8125 C 10.113281 -23.125 9.332031 -21.320312 8.75 -19.40625 C 8.164062 -17.488281 7.757812 -15.6875 7.53125 -14 C 7.3125 -12.320312 7.265625 -10.847656 7.390625 -9.578125 C 7.523438 -8.316406 7.785156 -7.488281 8.171875 -7.09375 C 8.878906 -6.382812 9.6875 -6.046875 10.59375 -6.078125 C 11.507812 -6.109375 12.4375 -6.367188 13.375 -6.859375 C 14.3125 -7.347656 15.25 -7.976562 16.1875 -8.75 C 17.132812 -9.53125 17.976562 -10.34375 18.71875 -11.1875 C 19.46875 -12.03125 20.082031 -12.804688 20.5625 -13.515625 C 21.050781 -14.234375 21.332031 -14.753906 21.40625 -15.078125 Z M 21.40625 -15.078125 "/></g></g></g><g fill="#425af5" fill-opacity="1"><g transform="translate(406.729986, 228.343636)"><g><path d="M 35.890625 -24.609375 C 36.148438 -24.992188 36.488281 -25.234375 36.90625 -25.328125 C 37.332031 -25.429688 37.675781 -25.382812 37.9375 -25.1875 C 38.195312 -25 38.34375 -24.675781 38.375 -24.21875 C 38.40625 -23.769531 38.226562 -23.15625 37.84375 -22.375 C 36.539062 -19.90625 34.835938 -17.242188 32.734375 -14.390625 C 30.628906 -11.535156 28.40625 -8.859375 26.0625 -6.359375 C 23.726562 -3.867188 21.457031 -1.8125 19.25 -0.1875 C 17.050781 1.425781 15.207031 2.234375 13.71875 2.234375 C 11.570312 2.234375 9.785156 1.8125 8.359375 0.96875 C 6.929688 0.125 5.8125 -0.910156 5 -2.140625 C 4.195312 -3.367188 3.632812 -4.710938 3.3125 -6.171875 C 2.988281 -7.628906 2.890625 -8.976562 3.015625 -10.21875 C 3.078125 -11.25 3.300781 -13.109375 3.6875 -15.796875 C 4.082031 -18.492188 4.601562 -21.609375 5.25 -25.140625 C 5.894531 -28.679688 6.625 -32.476562 7.4375 -36.53125 C 8.25 -40.582031 9.109375 -44.488281 10.015625 -48.25 C 8.910156 -48.113281 7.804688 -47.984375 6.703125 -47.859375 C 5.609375 -47.734375 4.609375 -47.671875 3.703125 -47.671875 C 1.617188 -47.671875 -0.34375 -47.910156 -2.1875 -48.390625 C -4.039062 -48.878906 -5.421875 -49.351562 -6.328125 -49.8125 C -6.835938 -50.0625 -7.0625 -50.429688 -7 -50.921875 C -6.9375 -51.410156 -6.742188 -51.894531 -6.421875 -52.375 C -6.097656 -52.863281 -5.691406 -53.285156 -5.203125 -53.640625 C -4.710938 -54.003906 -4.273438 -54.1875 -3.890625 -54.1875 C -2.660156 -54.050781 -1.332031 -53.9375 0.09375 -53.84375 C 1.519531 -53.75 3.078125 -53.734375 4.765625 -53.796875 C 5.992188 -53.859375 7.175781 -53.953125 8.3125 -54.078125 C 9.445312 -54.210938 10.566406 -54.378906 11.671875 -54.578125 C 12.515625 -57.679688 13.34375 -60.382812 14.15625 -62.6875 C 14.96875 -64.988281 15.695312 -66.597656 16.34375 -67.515625 C 16.539062 -67.835938 16.976562 -68.109375 17.65625 -68.328125 C 18.332031 -68.554688 19.0625 -68.71875 19.84375 -68.8125 C 20.625 -68.914062 21.367188 -68.914062 22.078125 -68.8125 C 22.796875 -68.71875 23.316406 -68.476562 23.640625 -68.09375 C 23.960938 -67.570312 24.085938 -66.238281 24.015625 -64.09375 C 23.953125 -61.957031 23.597656 -59.238281 22.953125 -55.9375 C 25.679688 -55.9375 28.097656 -55.789062 30.203125 -55.5 C 32.304688 -55.207031 34.101562 -54.878906 35.59375 -54.515625 C 37.09375 -54.160156 38.296875 -53.804688 39.203125 -53.453125 C 40.109375 -53.097656 40.789062 -52.851562 41.25 -52.71875 C 41.695312 -52.59375 41.9375 -52.269531 41.96875 -51.75 C 42 -51.226562 41.898438 -50.691406 41.671875 -50.140625 C 41.453125 -49.585938 41.082031 -49.117188 40.5625 -48.734375 C 40.039062 -48.347656 39.457031 -48.21875 38.8125 -48.34375 C 38.164062 -48.40625 37.4375 -48.535156 36.625 -48.734375 C 35.8125 -48.929688 34.835938 -49.09375 33.703125 -49.21875 C 32.566406 -49.351562 31.21875 -49.484375 29.65625 -49.609375 C 28.101562 -49.742188 26.289062 -49.8125 24.21875 -49.8125 C 23.832031 -49.8125 23.394531 -49.789062 22.90625 -49.75 C 22.414062 -49.71875 21.914062 -49.703125 21.40625 -49.703125 C 21.144531 -48.671875 20.898438 -47.648438 20.671875 -46.640625 C 20.441406 -45.640625 20.132812 -44.585938 19.75 -43.484375 C 18.90625 -40.890625 17.929688 -38.066406 16.828125 -35.015625 C 15.859375 -32.359375 14.691406 -29.3125 13.328125 -25.875 C 11.960938 -22.4375 10.4375 -18.773438 8.75 -14.890625 C 8.363281 -12.097656 8.410156 -9.972656 8.890625 -8.515625 C 9.378906 -7.054688 9.984375 -6 10.703125 -5.34375 C 11.546875 -4.632812 12.582031 -4.25 13.8125 -4.1875 C 14.78125 -4.050781 15.960938 -4.390625 17.359375 -5.203125 C 18.753906 -6.015625 20.195312 -7.097656 21.6875 -8.453125 C 23.175781 -9.816406 24.679688 -11.3125 26.203125 -12.9375 C 27.734375 -14.5625 29.144531 -16.148438 30.4375 -17.703125 C 31.738281 -19.253906 32.875 -20.660156 33.84375 -21.921875 C 34.820312 -23.191406 35.503906 -24.085938 35.890625 -24.609375 Z M 35.890625 -24.609375 "/></g></g></g><g fill="#425af5" fill-opacity="1"><g transform="translate(429.814557, 228.343636)"><g><path d="M 21.40625 -57.296875 C 21.207031 -56.578125 20.832031 -55.878906 20.28125 -55.203125 C 19.726562 -54.523438 19.109375 -53.972656 18.421875 -53.546875 C 17.742188 -53.128906 17.046875 -52.851562 16.328125 -52.71875 C 15.617188 -52.59375 15.039062 -52.722656 14.59375 -53.109375 C 13.226562 -54.148438 12.515625 -55.269531 12.453125 -56.46875 C 12.390625 -57.664062 12.679688 -58.800781 13.328125 -59.875 C 13.972656 -60.945312 14.78125 -61.851562 15.75 -62.59375 C 16.726562 -63.34375 17.570312 -63.78125 18.28125 -63.90625 C 19 -64.039062 19.597656 -63.894531 20.078125 -63.46875 C 20.566406 -63.050781 20.941406 -62.5 21.203125 -61.8125 C 21.460938 -61.132812 21.609375 -60.375 21.640625 -59.53125 C 21.671875 -58.6875 21.59375 -57.941406 21.40625 -57.296875 Z M 7.96875 -36.578125 C 8.300781 -36.960938 8.921875 -37.285156 9.828125 -37.546875 C 10.734375 -37.804688 11.671875 -38.015625 12.640625 -38.171875 C 13.617188 -38.335938 14.507812 -38.4375 15.3125 -38.46875 C 16.125 -38.5 16.597656 -38.484375 16.734375 -38.421875 C 16.796875 -38.359375 16.628906 -37.675781 16.234375 -36.375 C 15.847656 -35.082031 15.363281 -33.5625 14.78125 -31.8125 C 14.195312 -30.0625 13.582031 -28.257812 12.9375 -26.40625 C 12.289062 -24.5625 11.804688 -23.054688 11.484375 -21.890625 C 11.148438 -20.722656 10.753906 -19.410156 10.296875 -17.953125 C 9.847656 -16.492188 9.445312 -15.066406 9.09375 -13.671875 C 8.738281 -12.273438 8.492188 -10.957031 8.359375 -9.71875 C 8.234375 -8.488281 8.332031 -7.550781 8.65625 -6.90625 C 8.976562 -6.125 9.332031 -5.585938 9.71875 -5.296875 C 10.113281 -5.003906 10.535156 -4.859375 10.984375 -4.859375 C 12.285156 -4.859375 13.925781 -5.570312 15.90625 -7 C 17.882812 -8.425781 19.894531 -10.128906 21.9375 -12.109375 C 23.976562 -14.085938 25.875 -16.097656 27.625 -18.140625 C 29.375 -20.179688 30.671875 -21.816406 31.515625 -23.046875 C 32.035156 -23.703125 32.570312 -24.125 33.125 -24.3125 C 33.675781 -24.507812 34.128906 -24.476562 34.484375 -24.21875 C 34.835938 -23.957031 35.03125 -23.535156 35.0625 -22.953125 C 35.09375 -22.367188 34.882812 -21.691406 34.4375 -20.921875 C 33.394531 -19.097656 31.867188 -16.9375 29.859375 -14.4375 C 27.847656 -11.945312 25.707031 -9.550781 23.4375 -7.25 C 21.164062 -4.945312 18.941406 -2.984375 16.765625 -1.359375 C 14.597656 0.253906 12.835938 1.097656 11.484375 1.171875 C 10.378906 1.234375 9.289062 1.050781 8.21875 0.625 C 7.144531 0.207031 6.171875 -0.367188 5.296875 -1.109375 C 4.421875 -1.859375 3.691406 -2.734375 3.109375 -3.734375 C 2.523438 -4.742188 2.203125 -5.800781 2.140625 -6.90625 C 1.941406 -8.53125 1.941406 -10.75 2.140625 -13.5625 C 2.335938 -16.382812 2.691406 -19.269531 3.203125 -22.21875 C 3.722656 -25.175781 4.390625 -27.984375 5.203125 -30.640625 C 6.015625 -33.296875 6.9375 -35.273438 7.96875 -36.578125 Z M 7.96875 -36.578125 "/></g></g></g><g fill="#425af5" fill-opacity="1"><g transform="translate(450.175458, 228.343636)"><g><path d="M 28.796875 -15.46875 C 28.148438 -13 27.273438 -10.691406 26.171875 -8.546875 C 25.066406 -6.410156 23.75 -4.566406 22.21875 -3.015625 C 20.695312 -1.460938 18.976562 -0.25 17.0625 0.625 C 15.15625 1.507812 13.066406 1.953125 10.796875 1.953125 C 8.140625 1.953125 6.046875 1.382812 4.515625 0.25 C 2.992188 -0.882812 1.859375 -2.296875 1.109375 -3.984375 C 0.367188 -5.671875 -0.078125 -7.519531 -0.234375 -9.53125 C -0.398438 -11.539062 -0.484375 -13.421875 -0.484375 -15.171875 C -0.484375 -16.398438 -0.335938 -17.757812 -0.046875 -19.25 C 0.242188 -20.75 0.648438 -22.273438 1.171875 -23.828125 C 1.691406 -25.390625 2.351562 -26.945312 3.15625 -28.5 C 3.96875 -30.0625 4.925781 -31.488281 6.03125 -32.78125 C 6.414062 -33.882812 7.015625 -34.859375 7.828125 -35.703125 C 8.640625 -36.546875 9.578125 -37.242188 10.640625 -37.796875 C 11.710938 -38.347656 12.863281 -38.769531 14.09375 -39.0625 C 15.332031 -39.351562 16.535156 -39.5 17.703125 -39.5 C 17.898438 -39.5 18.078125 -39.460938 18.234375 -39.390625 C 18.398438 -39.328125 18.582031 -39.265625 18.78125 -39.203125 C 19.613281 -39.140625 20.660156 -38.816406 21.921875 -38.234375 C 23.191406 -37.648438 24.425781 -36.773438 25.625 -35.609375 C 26.832031 -34.441406 27.851562 -32.960938 28.6875 -31.171875 C 29.53125 -29.390625 29.953125 -27.234375 29.953125 -24.703125 C 29.953125 -24.179688 29.921875 -23.546875 29.859375 -22.796875 C 29.796875 -22.054688 29.734375 -21.429688 29.671875 -20.921875 C 31.160156 -21.503906 32.710938 -22.210938 34.328125 -23.046875 C 35.953125 -23.890625 37.523438 -24.78125 39.046875 -25.71875 C 40.578125 -26.664062 41.988281 -27.625 43.28125 -28.59375 C 44.582031 -29.570312 45.625 -30.445312 46.40625 -31.21875 C 47.050781 -31.800781 47.597656 -32.125 48.046875 -32.1875 C 48.503906 -32.257812 48.828125 -32.132812 49.015625 -31.8125 C 49.210938 -31.488281 49.242188 -31.035156 49.109375 -30.453125 C 48.984375 -29.867188 48.628906 -29.21875 48.046875 -28.5 C 47.722656 -28.113281 46.894531 -27.335938 45.5625 -26.171875 C 44.238281 -25.003906 42.664062 -23.738281 40.84375 -22.375 C 39.03125 -21.007812 37.054688 -19.675781 34.921875 -18.375 C 32.785156 -17.082031 30.742188 -16.113281 28.796875 -15.46875 Z M 12.359375 -30.25 C 12.160156 -29.664062 12.0625 -29.050781 12.0625 -28.40625 C 12.0625 -27.363281 12.125 -26.273438 12.25 -25.140625 C 12.382812 -24.003906 12.707031 -22.984375 13.21875 -22.078125 C 13.738281 -21.171875 14.566406 -20.410156 15.703125 -19.796875 C 16.835938 -19.179688 18.410156 -18.875 20.421875 -18.875 C 20.753906 -18.875 21.082031 -18.890625 21.40625 -18.921875 C 21.726562 -18.953125 22.050781 -19 22.375 -19.0625 C 22.570312 -19.90625 22.75 -20.664062 22.90625 -21.34375 C 23.070312 -22.03125 23.15625 -22.632812 23.15625 -23.15625 C 23.28125 -24.382812 23.273438 -25.644531 23.140625 -26.9375 C 23.015625 -28.238281 22.773438 -29.421875 22.421875 -30.484375 C 22.066406 -31.554688 21.613281 -32.429688 21.0625 -33.109375 C 20.507812 -33.796875 19.84375 -34.140625 19.0625 -34.140625 C 17.832031 -34.140625 16.648438 -33.796875 15.515625 -33.109375 C 14.378906 -32.429688 13.328125 -31.476562 12.359375 -30.25 Z M 6.125 -13.125 C 6.125 -11.957031 6.1875 -10.804688 6.3125 -9.671875 C 6.445312 -8.535156 6.707031 -7.53125 7.09375 -6.65625 C 7.488281 -5.78125 8.007812 -5.066406 8.65625 -4.515625 C 9.300781 -3.972656 10.144531 -3.703125 11.1875 -3.703125 C 12.351562 -3.703125 13.421875 -3.972656 14.390625 -4.515625 C 15.367188 -5.066406 16.242188 -5.78125 17.015625 -6.65625 C 17.796875 -7.53125 18.492188 -8.535156 19.109375 -9.671875 C 19.722656 -10.804688 20.257812 -11.992188 20.71875 -13.234375 C 20.257812 -13.160156 19.820312 -13.109375 19.40625 -13.078125 C 18.988281 -13.046875 18.519531 -13.03125 18 -13.03125 C 15.53125 -13.03125 13.40625 -13.757812 11.625 -15.21875 C 9.84375 -16.675781 8.460938 -18.539062 7.484375 -20.8125 C 7.097656 -19.457031 6.773438 -18.128906 6.515625 -16.828125 C 6.253906 -15.535156 6.125 -14.300781 6.125 -13.125 Z M 6.125 -13.125 "/></g></g></g><g fill="#425af5" fill-opacity="1"><g transform="translate(482.403775, 228.343636)"><g><path d="M 28.890625 2.4375 C 27.398438 2.4375 26.117188 2.160156 25.046875 1.609375 C 23.972656 1.054688 23.113281 0.328125 22.46875 -0.578125 C 21.820312 -1.492188 21.398438 -2.550781 21.203125 -3.75 C 21.015625 -4.945312 21.082031 -6.226562 21.40625 -7.59375 C 21.59375 -8.5 21.910156 -9.710938 22.359375 -11.234375 C 22.816406 -12.753906 23.289062 -14.40625 23.78125 -16.1875 C 24.269531 -17.976562 24.722656 -19.765625 25.140625 -21.546875 C 25.566406 -23.328125 25.84375 -24.945312 25.96875 -26.40625 C 26.101562 -27.863281 26.039062 -29.0625 25.78125 -30 C 25.519531 -30.945312 24.96875 -31.421875 24.125 -31.421875 C 23.082031 -31.421875 22.007812 -31.078125 20.90625 -30.390625 C 19.8125 -29.710938 18.695312 -28.789062 17.5625 -27.625 C 16.425781 -26.457031 15.289062 -25.109375 14.15625 -23.578125 C 13.019531 -22.054688 11.898438 -20.488281 10.796875 -18.875 C 10.210938 -16.664062 9.722656 -14.734375 9.328125 -13.078125 C 8.941406 -11.429688 8.601562 -9.941406 8.3125 -8.609375 C 8.019531 -7.273438 7.742188 -6.101562 7.484375 -5.09375 C 7.222656 -4.09375 7 -3.140625 6.8125 -2.234375 C 6.613281 -1.585938 6.023438 -0.957031 5.046875 -0.34375 C 4.078125 0.269531 3.039062 0.769531 1.9375 1.15625 C 0.84375 1.550781 -0.109375 1.75 -0.921875 1.75 C -1.734375 1.75 -2.078125 1.457031 -1.953125 0.875 C -1.878906 0.488281 -1.664062 -0.382812 -1.3125 -1.75 C -0.957031 -3.113281 -0.535156 -4.71875 -0.046875 -6.5625 C 0.441406 -8.414062 0.941406 -10.378906 1.453125 -12.453125 C 1.972656 -14.523438 2.460938 -16.503906 2.921875 -18.390625 C 3.242188 -19.878906 3.597656 -21.53125 3.984375 -23.34375 C 4.304688 -24.90625 4.710938 -26.722656 5.203125 -28.796875 C 5.691406 -30.867188 6.257812 -33.140625 6.90625 -35.609375 C 7.363281 -35.992188 7.832031 -36.296875 8.3125 -36.515625 C 8.800781 -36.742188 9.304688 -36.925781 9.828125 -37.0625 C 10.347656 -37.257812 10.898438 -37.390625 11.484375 -37.453125 C 11.992188 -37.453125 12.507812 -37.421875 13.03125 -37.359375 C 13.488281 -37.285156 13.957031 -37.164062 14.4375 -37 C 14.925781 -36.84375 15.367188 -36.601562 15.765625 -36.28125 C 15.566406 -35.832031 15.335938 -35.203125 15.078125 -34.390625 C 14.816406 -33.578125 14.554688 -32.71875 14.296875 -31.8125 C 14.035156 -30.769531 13.710938 -29.695312 13.328125 -28.59375 C 14.171875 -29.757812 15.125 -30.941406 16.1875 -32.140625 C 17.257812 -33.347656 18.425781 -34.4375 19.6875 -35.40625 C 20.957031 -36.375 22.304688 -37.164062 23.734375 -37.78125 C 25.160156 -38.40625 26.617188 -38.71875 28.109375 -38.71875 C 29.335938 -38.71875 30.4375 -38.359375 31.40625 -37.640625 C 32.382812 -36.929688 33.148438 -35.941406 33.703125 -34.671875 C 34.253906 -33.410156 34.578125 -31.90625 34.671875 -30.15625 C 34.773438 -28.40625 34.535156 -26.492188 33.953125 -24.421875 L 32.875 -20.140625 C 32.550781 -18.773438 32.144531 -17.164062 31.65625 -15.3125 C 31.175781 -13.46875 30.578125 -11.441406 29.859375 -9.234375 C 29.472656 -7.804688 29.328125 -6.570312 29.421875 -5.53125 C 29.523438 -4.5 30.160156 -3.984375 31.328125 -3.984375 C 32.492188 -3.984375 33.96875 -4.695312 35.75 -6.125 C 37.53125 -7.550781 39.328125 -9.269531 41.140625 -11.28125 C 42.960938 -13.289062 44.679688 -15.347656 46.296875 -17.453125 C 47.921875 -19.566406 49.15625 -21.269531 50 -22.5625 C 50.582031 -23.40625 51.132812 -23.957031 51.65625 -24.21875 C 52.175781 -24.476562 52.582031 -24.507812 52.875 -24.3125 C 53.164062 -24.125 53.3125 -23.6875 53.3125 -23 C 53.3125 -22.320312 53.050781 -21.460938 52.53125 -20.421875 C 52.070312 -19.515625 51.375 -18.316406 50.4375 -16.828125 C 49.5 -15.335938 48.378906 -13.75 47.078125 -12.0625 C 45.785156 -10.375 44.390625 -8.671875 42.890625 -6.953125 C 41.398438 -5.234375 39.84375 -3.675781 38.21875 -2.28125 C 36.601562 -0.882812 35 0.25 33.40625 1.125 C 31.820312 2 30.316406 2.4375 28.890625 2.4375 Z M 28.890625 2.4375 "/></g></g></g><g fill="#425af5" fill-opacity="1"><g transform="translate(521.441265, 228.343636)"><g><path d="M 13.71875 -3.3125 C 14.101562 -3.050781 14.601562 -2.921875 15.21875 -2.921875 C 15.832031 -2.921875 16.445312 -3.050781 17.0625 -3.3125 C 17.6875 -3.570312 18.273438 -3.925781 18.828125 -4.375 C 19.378906 -4.832031 19.78125 -5.414062 20.03125 -6.125 C 20.289062 -6.84375 20.289062 -7.863281 20.03125 -9.1875 C 19.78125 -10.519531 19.378906 -11.945312 18.828125 -13.46875 C 18.273438 -15 17.671875 -16.539062 17.015625 -18.09375 C 16.367188 -19.644531 15.820312 -21.070312 15.375 -22.375 C 14.976562 -23.34375 14.648438 -24.25 14.390625 -25.09375 C 14.128906 -25.8125 13.882812 -26.507812 13.65625 -27.1875 C 13.4375 -27.863281 13.257812 -28.332031 13.125 -28.59375 C 12.800781 -28.082031 12.234375 -27.238281 11.421875 -26.0625 C 10.617188 -24.894531 9.742188 -23.679688 8.796875 -22.421875 C 7.859375 -21.160156 6.96875 -19.992188 6.125 -18.921875 C 5.28125 -17.847656 4.695312 -17.117188 4.375 -16.734375 C 3.851562 -16.148438 3.347656 -15.804688 2.859375 -15.703125 C 2.378906 -15.609375 1.976562 -15.707031 1.65625 -16 C 1.332031 -16.289062 1.148438 -16.710938 1.109375 -17.265625 C 1.078125 -17.816406 1.320312 -18.484375 1.84375 -19.265625 C 2.238281 -19.773438 2.820312 -20.597656 3.59375 -21.734375 C 4.375 -22.867188 5.148438 -24.035156 5.921875 -25.234375 C 6.703125 -26.441406 7.414062 -27.515625 8.0625 -28.453125 C 8.71875 -29.390625 9.078125 -29.957031 9.140625 -30.15625 C 9.273438 -30.675781 9.097656 -31.359375 8.609375 -32.203125 C 8.117188 -33.046875 8.035156 -34.015625 8.359375 -35.109375 C 8.617188 -36.023438 9.203125 -37.082031 10.109375 -38.28125 C 11.023438 -39.476562 12.097656 -40.5625 13.328125 -41.53125 C 14.554688 -42.507812 15.816406 -43.238281 17.109375 -43.71875 C 18.410156 -44.207031 19.582031 -44.191406 20.625 -43.671875 C 21.46875 -43.148438 22.144531 -42.582031 22.65625 -41.96875 C 23.175781 -41.351562 23.375 -40.722656 23.25 -40.078125 C 23.113281 -39.753906 22.921875 -39.332031 22.671875 -38.8125 C 22.410156 -38.289062 22.019531 -37.65625 21.5 -36.90625 C 20.976562 -36.164062 20.234375 -35.210938 19.265625 -34.046875 C 19.453125 -32.554688 19.722656 -31.191406 20.078125 -29.953125 C 20.441406 -28.722656 20.785156 -27.65625 21.109375 -26.75 C 21.492188 -25.644531 21.914062 -24.640625 22.375 -23.734375 C 22.957031 -22.566406 23.570312 -21.363281 24.21875 -20.125 C 24.863281 -18.894531 25.445312 -17.679688 25.96875 -16.484375 C 26.488281 -15.285156 26.910156 -14.164062 27.234375 -13.125 C 27.554688 -12.09375 27.65625 -11.21875 27.53125 -10.5 C 27.332031 -9.40625 26.765625 -8.078125 25.828125 -6.515625 C 24.890625 -4.960938 23.722656 -3.457031 22.328125 -2 C 20.929688 -0.539062 19.34375 0.707031 17.5625 1.75 C 15.78125 2.789062 13.914062 3.3125 11.96875 3.3125 C 10.601562 3.3125 9.285156 2.890625 8.015625 2.046875 C 6.753906 1.203125 5.6875 0.210938 4.8125 -0.921875 C 3.9375 -2.054688 3.285156 -3.175781 2.859375 -4.28125 C 2.441406 -5.382812 2.394531 -6.226562 2.71875 -6.8125 C 3.113281 -7.582031 3.472656 -8.195312 3.796875 -8.65625 C 4.117188 -9.113281 4.601562 -9.632812 5.25 -10.21875 C 5.507812 -10.40625 5.832031 -10.628906 6.21875 -10.890625 C 6.550781 -11.085938 7.007812 -11.28125 7.59375 -11.46875 C 8.175781 -11.664062 8.851562 -11.894531 9.625 -12.15625 C 10.28125 -10.144531 10.863281 -8.570312 11.375 -7.4375 C 11.894531 -6.300781 12.316406 -5.410156 12.640625 -4.765625 C 13.035156 -4.054688 13.394531 -3.570312 13.71875 -3.3125 Z M 13.71875 -3.3125 "/></g></g></g></g></g></g></g></g></svg>