<svg xmlns="http://www.w3.org/2000/svg" xmlns:xlink="http://www.w3.org/1999/xlink" width="1123" zoomAndPan="magnify" viewBox="0 0 842.25 595.499986" height="794" preserveAspectRatio="xMidYMid meet" version="1.0"><defs><g/><clipPath id="93b80b1df4"><path d="M 0.160156 0.449219 L 191.3125 0.449219 L 191.3125 229.832031 L 0.160156 229.832031 Z M 0.160156 0.449219 " clip-rule="nonzero"/></clipPath><clipPath id="95e504195b"><path d="M 112 58 L 665.910156 58 L 665.910156 335.457031 L 112 335.457031 Z M 112 58 " clip-rule="nonzero"/></clipPath><clipPath id="2d74fcf59a"><rect x="0" width="554" y="0" height="278"/></clipPath><clipPath id="692a989b63"><rect x="0" width="666" y="0" height="336"/></clipPath></defs><g transform="matrix(1, 0, 0, 1, 64, 112)"><g clip-path="url(#692a989b63)"><g clip-path="url(#93b80b1df4)"><path fill="#425af5" d="M 96.058594 0.449219 L 72.519531 87.0625 L 0.183594 102.296875 L 57.972656 142.953125 L 36.300781 229.929688 L 95.605469 151.46875 L 57.53125 190.992188 L 71.453125 135.097656 L 34.304688 108.964844 L 80.804688 99.179688 L 95.929688 43.496094 L 110.742188 93.359375 L 191.4375 65.121094 L 119.09375 78.007812 L 96.058594 0.449219 " fill-opacity="1" fill-rule="nonzero"/></g><g clip-path="url(#95e504195b)"><g transform="matrix(1, 0, 0, 1, 112, 58)"><g clip-path="url(#2d74fcf59a)"><g fill="#000000" fill-opacity="1"><g transform="translate(1.050157, 150.915186)"><g><path d="M 104.199219 -58.5 C 101.167969 -46.386719 98.003906 -33.449219 95.25 -21.058594 C 92.773438 -33.449219 90.019531 -46.386719 86.992188 -58.636719 L 76.945312 -98.003906 L 57.8125 -98.003906 L 47.761719 -58.636719 C 44.871094 -46.386719 41.980469 -33.585938 39.367188 -21.199219 C 36.75 -33.585938 33.449219 -46.386719 30.417969 -58.5 L 20.234375 -98.003906 L 0.824219 -98.003906 L 28.078125 0 L 48.863281 0 L 59.324219 -40.742188 C 62.214844 -52.03125 64.96875 -63.867188 67.308594 -75.429688 C 69.648438 -63.867188 72.539062 -52.03125 75.292969 -40.742188 L 85.753906 0 L 106.675781 0 L 133.792969 -98.003906 L 114.523438 -98.003906 Z M 104.199219 -58.5 "/></g></g></g><g fill="#000000" fill-opacity="1"><g transform="translate(126.030019, 150.915186)"><g><path d="M 40.054688 1.652344 C 61.664062 1.652344 76.117188 -12.9375 76.117188 -35.511719 C 76.117188 -58.085938 61.664062 -72.675781 40.054688 -72.675781 C 18.445312 -72.675781 3.855469 -58.085938 3.855469 -35.511719 C 3.855469 -12.9375 18.445312 1.652344 40.054688 1.652344 Z M 40.054688 -12.664062 C 28.769531 -12.664062 21.609375 -20.507812 21.609375 -35.511719 C 21.609375 -50.515625 28.769531 -58.363281 40.054688 -58.363281 C 51.203125 -58.363281 58.5 -50.515625 58.5 -35.511719 C 58.5 -20.507812 51.203125 -12.664062 40.054688 -12.664062 Z M 40.054688 -12.664062 "/></g></g></g><g fill="#000000" fill-opacity="1"><g transform="translate(196.365393, 150.915186)"><g><path d="M 45.011719 -72.125 C 34 -72.125 27.253906 -66.34375 23.8125 -58.363281 L 23.8125 -71.023438 L 7.019531 -71.023438 L 7.019531 0 L 24.363281 0 L 24.363281 -36.0625 C 24.363281 -49.550781 32.070312 -55.882812 44.871094 -55.882812 L 49.277344 -55.882812 L 49.277344 -71.851562 C 47.761719 -72.125 46.523438 -72.125 45.011719 -72.125 Z M 45.011719 -72.125 "/></g></g></g><g fill="#000000" fill-opacity="1"><g transform="translate(239.172066, 150.915186)"><g><path d="M 75.292969 0 L 46.800781 -44.183594 L 73.640625 -71.023438 L 52.992188 -71.023438 L 24.089844 -41.570312 L 24.089844 -98.003906 L 7.019531 -98.003906 L 7.019531 0 L 24.089844 0 L 24.089844 -22.296875 L 34.824219 -33.035156 L 55.472656 0 Z M 75.292969 0 "/></g></g></g><g fill="#000000" fill-opacity="1"><g transform="translate(305.240487, 150.915186)"><g><path d="M 46.386719 -72.675781 C 36.476562 -72.675781 29.179688 -68.683594 24.363281 -61.804688 L 24.363281 -98.003906 L 7.019531 -98.003906 L 7.019531 0 L 23.675781 0 L 23.675781 -10.1875 C 28.492188 -2.753906 36.0625 1.652344 46.386719 1.652344 C 65.933594 1.652344 78.183594 -12.9375 78.183594 -35.511719 C 78.183594 -58.085938 65.933594 -72.675781 46.386719 -72.675781 Z M 42.257812 -12.664062 C 30.96875 -12.664062 23.949219 -20.507812 23.949219 -35.511719 C 23.949219 -50.515625 30.96875 -58.363281 42.257812 -58.363281 C 53.542969 -58.363281 60.5625 -51.066406 60.5625 -36.0625 C 60.5625 -21.058594 53.542969 -12.664062 42.257812 -12.664062 Z M 42.257812 -12.664062 "/></g></g></g><g fill="#000000" fill-opacity="1"><g transform="translate(377.640522, 150.915186)"><g><path d="M 40.054688 1.652344 C 61.664062 1.652344 76.117188 -12.9375 76.117188 -35.511719 C 76.117188 -58.085938 61.664062 -72.675781 40.054688 -72.675781 C 18.445312 -72.675781 3.855469 -58.085938 3.855469 -35.511719 C 3.855469 -12.9375 18.445312 1.652344 40.054688 1.652344 Z M 40.054688 -12.664062 C 28.769531 -12.664062 21.609375 -20.507812 21.609375 -35.511719 C 21.609375 -50.515625 28.769531 -58.363281 40.054688 -58.363281 C 51.203125 -58.363281 58.5 -50.515625 58.5 -35.511719 C 58.5 -20.507812 51.203125 -12.664062 40.054688 -12.664062 Z M 40.054688 -12.664062 "/></g></g></g><g fill="#000000" fill-opacity="1"><g transform="translate(447.975916, 150.915186)"><g><path d="M 44.046875 -71.023438 L 30.007812 -71.023438 L 30.007812 -91.671875 L 12.800781 -91.671875 L 12.800781 -71.023438 L 1.789062 -71.023438 L 1.789062 -57.535156 L 12.800781 -57.535156 L 12.800781 -17.617188 C 12.800781 -4.542969 19.957031 0.414062 34.960938 0.414062 C 37.714844 0.414062 41.019531 0.273438 44.046875 0 L 44.046875 -13.351562 L 38.128906 -13.351562 C 32.347656 -13.351562 30.007812 -14.867188 30.007812 -19.546875 L 30.007812 -57.535156 L 44.046875 -57.535156 Z M 44.046875 -71.023438 "/></g></g></g><g fill="#000000" fill-opacity="1"><g transform="translate(485.55212, 150.915186)"><g><path d="M 34.960938 1.925781 C 54.78125 1.925781 66.484375 -6.054688 66.484375 -20.371094 C 66.484375 -32.621094 58.914062 -38.953125 41.84375 -41.980469 L 32.898438 -43.359375 C 25.1875 -44.734375 21.058594 -46.800781 21.058594 -52.03125 C 21.058594 -57.125 25.050781 -60.289062 33.449219 -60.289062 C 42.394531 -60.289062 48.039062 -57.671875 48.453125 -48.589844 L 64.832031 -48.589844 C 64.28125 -63.179688 55.332031 -72.675781 33.449219 -72.675781 C 14.453125 -72.675781 3.992188 -64.554688 3.992188 -51.203125 C 3.992188 -39.089844 11.976562 -32.347656 27.253906 -29.730469 L 35.375 -28.355469 C 46.113281 -26.566406 49.277344 -24.089844 49.277344 -18.996094 C 49.277344 -13.628906 45.285156 -10.460938 35.238281 -10.460938 C 24.914062 -10.460938 20.371094 -13.628906 19.40625 -22.574219 L 2.476562 -22.574219 C 3.578125 -5.367188 14.726562 1.925781 34.960938 1.925781 Z M 34.960938 1.925781 "/></g></g></g><g fill="#425af5" fill-opacity="1"><g transform="translate(38.809261, 228.343636)"><g/></g></g><g fill="#425af5" fill-opacity="1"><g transform="translate(59.753806, 228.343636)"><g/></g></g><g fill="#425af5" fill-opacity="1"><g transform="translate(80.69835, 228.343636)"><g/></g></g><g fill="#425af5" fill-opacity="1"><g transform="translate(101.642895, 228.343636)"><g/></g></g><g fill="#425af5" fill-opacity="1"><g transform="translate(122.58744, 228.343636)"><g/></g></g><g fill="#425af5" fill-opacity="1"><g transform="translate(143.531984, 228.343636)"><g/></g></g><g fill="#425af5" fill-opacity="1"><g transform="translate(164.476529, 228.343636)"><g/></g></g><g fill="#425af5" fill-opacity="1"><g transform="translate(185.421073, 228.343636)"><g/></g></g><g fill="#425af5" fill-opacity="1"><g transform="translate(206.365618, 228.343636)"><g/></g></g><g fill="#425af5" fill-opacity="1"><g transform="translate(227.310163, 228.343636)"><g/></g></g><g fill="#425af5" fill-opacity="1"><g transform="translate(248.254707, 228.343636)"><g/></g></g><g fill="#425af5" fill-opacity="1"><g transform="translate(269.199252, 228.343636)"><g/></g></g><g fill="#425af5" fill-opacity="1"><g transform="translate(290.143797, 228.343636)"><g/></g></g><g fill="#425af5" fill-opacity="1"><g transform="translate(311.088341, 228.343636)"><g/></g></g><g fill="#425af5" fill-opacity="1"><g transform="translate(332.052543, 228.343636)"><g><path d="M 35.703125 -44.65625 C 35.640625 -44.84375 35.832031 -45.34375 36.28125 -46.15625 C 36.738281 -46.96875 37.242188 -47.972656 37.796875 -49.171875 C 38.347656 -50.367188 38.894531 -51.726562 39.4375 -53.25 C 39.988281 -54.78125 40.378906 -56.351562 40.609375 -57.96875 C 40.835938 -59.59375 40.820312 -61.210938 40.5625 -62.828125 C 40.300781 -64.453125 39.617188 -66.015625 38.515625 -67.515625 C 37.867188 -68.285156 36.910156 -68.71875 35.640625 -68.8125 C 34.378906 -68.914062 32.953125 -68.722656 31.359375 -68.234375 C 29.773438 -67.753906 28.125 -67.007812 26.40625 -66 C 24.6875 -65 23.113281 -63.832031 21.6875 -62.5 C 20.257812 -61.164062 19.039062 -59.6875 18.03125 -58.0625 C 17.03125 -56.445312 16.46875 -54.796875 16.34375 -53.109375 C 16.207031 -51.742188 16.253906 -50.476562 16.484375 -49.3125 C 16.710938 -48.144531 17.019531 -47.078125 17.40625 -46.109375 C 17.800781 -45.140625 18.222656 -44.234375 18.671875 -43.390625 C 19.128906 -42.546875 19.550781 -41.796875 19.9375 -41.140625 C 20.457031 -40.234375 21.269531 -39.226562 22.375 -38.125 C 23.476562 -37.03125 24.675781 -35.785156 25.96875 -34.390625 C 27.269531 -32.992188 28.566406 -31.421875 29.859375 -29.671875 C 31.160156 -27.921875 32.296875 -25.941406 33.265625 -23.734375 C 34.242188 -21.523438 34.925781 -19.054688 35.3125 -16.328125 C 35.695312 -13.609375 35.664062 -10.597656 35.21875 -7.296875 C 34.5 -2.492188 33.359375 1.507812 31.796875 4.71875 C 30.242188 7.925781 28.539062 10.503906 26.6875 12.453125 C 24.84375 14.398438 22.976562 15.8125 21.09375 16.6875 C 19.21875 17.5625 17.664062 18.128906 16.4375 18.390625 C 15.46875 18.578125 14.316406 18.75 12.984375 18.90625 C 11.648438 19.070312 10.253906 19.039062 8.796875 18.8125 C 7.335938 18.59375 5.863281 18.140625 4.375 17.453125 C 2.882812 16.773438 1.554688 15.722656 0.390625 14.296875 C -0.972656 12.679688 -2.046875 10.929688 -2.828125 9.046875 C -3.535156 7.421875 -4.066406 5.554688 -4.421875 3.453125 C -4.785156 1.347656 -4.609375 -0.835938 -3.890625 -3.109375 C -3.367188 -3.691406 -2.816406 -4.207031 -2.234375 -4.65625 C -1.648438 -5.113281 -1.066406 -5.507812 -0.484375 -5.84375 C 0.160156 -6.226562 0.84375 -6.582031 1.5625 -6.90625 C 2.40625 -7.164062 3.242188 -7.394531 4.078125 -7.59375 C 4.796875 -7.71875 5.5625 -7.796875 6.375 -7.828125 C 7.1875 -7.859375 7.945312 -7.742188 8.65625 -7.484375 C 7.6875 -6.390625 7.003906 -5.351562 6.609375 -4.375 C 6.347656 -3.851562 6.15625 -3.398438 6.03125 -3.015625 C 5.769531 -1.785156 5.6875 -0.3125 5.78125 1.40625 C 5.882812 3.125 6.242188 4.773438 6.859375 6.359375 C 7.472656 7.953125 8.363281 9.316406 9.53125 10.453125 C 10.695312 11.585938 12.253906 12.1875 14.203125 12.25 C 18.929688 12.382812 22.953125 8.691406 26.265625 1.171875 C 27.367188 -1.160156 27.9375 -3.523438 27.96875 -5.921875 C 28 -8.328125 27.707031 -10.628906 27.09375 -12.828125 C 26.476562 -15.035156 25.664062 -17.097656 24.65625 -19.015625 C 23.65625 -20.929688 22.632812 -22.566406 21.59375 -23.921875 C 20.550781 -25.285156 19.300781 -26.757812 17.84375 -28.34375 C 16.382812 -29.9375 14.941406 -31.671875 13.515625 -33.546875 C 12.085938 -35.429688 10.804688 -37.476562 9.671875 -39.6875 C 8.535156 -41.894531 7.773438 -44.296875 7.390625 -46.890625 C 6.867188 -50.515625 7.207031 -53.832031 8.40625 -56.84375 C 9.613281 -59.863281 11.238281 -62.507812 13.28125 -64.78125 C 15.320312 -67.050781 17.554688 -68.898438 19.984375 -70.328125 C 22.421875 -71.753906 24.578125 -72.660156 26.453125 -73.046875 C 36.898438 -75.128906 43.742188 -73.378906 46.984375 -67.796875 C 48.347656 -65.660156 49.09375 -63.390625 49.21875 -60.984375 C 49.351562 -58.585938 49.207031 -56.367188 48.78125 -54.328125 C 48.363281 -52.285156 47.84375 -50.566406 47.21875 -49.171875 C 46.601562 -47.773438 46.203125 -47.015625 46.015625 -46.890625 C 45.617188 -46.492188 45 -46.066406 44.15625 -45.609375 C 43.3125 -45.160156 41.953125 -44.742188 40.078125 -44.359375 C 39.554688 -44.222656 39.035156 -44.15625 38.515625 -44.15625 C 38.066406 -44.15625 37.582031 -44.1875 37.0625 -44.25 C 36.539062 -44.320312 36.085938 -44.457031 35.703125 -44.65625 Z M 35.703125 -44.65625 "/></g></g></g><g fill="#425af5" fill-opacity="1"><g transform="translate(372.354594, 228.343636)"><g><path d="M -1.453125 -1.5625 C 1.398438 -13.550781 3.679688 -23.175781 5.390625 -30.4375 C 7.109375 -37.707031 8.425781 -43.253906 9.34375 -47.078125 C 10.375 -51.617188 11.085938 -54.765625 11.484375 -56.515625 C 11.671875 -57.742188 11.832031 -58.941406 11.96875 -60.109375 C 12.09375 -61.148438 12.15625 -62.222656 12.15625 -63.328125 C 12.15625 -64.429688 12.0625 -65.4375 11.875 -66.34375 C 12.382812 -66.664062 12.945312 -66.921875 13.5625 -67.109375 C 14.1875 -67.304688 14.789062 -67.472656 15.375 -67.609375 C 16.082031 -67.796875 16.796875 -67.957031 17.515625 -68.09375 C 18.222656 -68.21875 18.867188 -68.28125 19.453125 -68.28125 C 19.972656 -68.28125 20.457031 -68.234375 20.90625 -68.140625 C 21.363281 -68.046875 21.660156 -67.835938 21.796875 -67.515625 C 22.179688 -67.179688 22.359375 -66.53125 22.328125 -65.5625 C 22.296875 -64.59375 22.210938 -63.585938 22.078125 -62.546875 C 21.816406 -61.316406 21.523438 -59.988281 21.203125 -58.5625 C 20.421875 -55.769531 19.351562 -51.75 18 -46.5 C 16.832031 -42.019531 15.257812 -35.921875 13.28125 -28.203125 C 11.300781 -20.492188 8.820312 -10.769531 5.84375 0.96875 C 5.507812 1.289062 5.113281 1.515625 4.65625 1.640625 C 4.207031 1.773438 3.789062 1.84375 3.40625 1.84375 C 2.945312 1.84375 2.460938 1.8125 1.953125 1.75 C 1.492188 1.625 1.035156 1.429688 0.578125 1.171875 C 0.191406 0.910156 -0.191406 0.566406 -0.578125 0.140625 C -0.972656 -0.273438 -1.265625 -0.84375 -1.453125 -1.5625 Z M -1.453125 -1.5625 "/></g></g></g><g fill="#425af5" fill-opacity="1"><g transform="translate(387.170883, 228.343636)"><g><path d="M 21.40625 -57.296875 C 21.207031 -56.578125 20.832031 -55.878906 20.28125 -55.203125 C 19.726562 -54.523438 19.109375 -53.972656 18.421875 -53.546875 C 17.742188 -53.128906 17.046875 -52.851562 16.328125 -52.71875 C 15.617188 -52.59375 15.039062 -52.722656 14.59375 -53.109375 C 13.226562 -54.148438 12.515625 -55.269531 12.453125 -56.46875 C 12.390625 -57.664062 12.679688 -58.800781 13.328125 -59.875 C 13.972656 -60.945312 14.78125 -61.851562 15.75 -62.59375 C 16.726562 -63.34375 17.570312 -63.78125 18.28125 -63.90625 C 19 -64.039062 19.597656 -63.894531 20.078125 -63.46875 C 20.566406 -63.050781 20.941406 -62.5 21.203125 -61.8125 C 21.460938 -61.132812 21.609375 -60.375 21.640625 -59.53125 C 21.671875 -58.6875 21.59375 -57.941406 21.40625 -57.296875 Z M 7.96875 -36.578125 C 8.300781 -36.960938 8.921875 -37.285156 9.828125 -37.546875 C 10.734375 -37.804688 11.671875 -38.015625 12.640625 -38.171875 C 13.617188 -38.335938 14.507812 -38.4375 15.3125 -38.46875 C 16.125 -38.5 16.597656 -38.484375 16.734375 -38.421875 C 16.796875 -38.359375 16.628906 -37.675781 16.234375 -36.375 C 15.847656 -35.082031 15.363281 -33.5625 14.78125 -31.8125 C 14.195312 -30.0625 13.582031 -28.257812 12.9375 -26.40625 C 12.289062 -24.5625 11.804688 -23.054688 11.484375 -21.890625 C 11.148438 -20.722656 10.753906 -19.410156 10.296875 -17.953125 C 9.847656 -16.492188 9.445312 -15.066406 9.09375 -13.671875 C 8.738281 -12.273438 8.492188 -10.957031 8.359375 -9.71875 C 8.234375 -8.488281 8.332031 -7.550781 8.65625 -6.90625 C 8.976562 -6.125 9.332031 -5.585938 9.71875 -5.296875 C 10.113281 -5.003906 10.535156 -4.859375 10.984375 -4.859375 C 12.285156 -4.859375 13.925781 -5.570312 15.90625 -7 C 17.882812 -8.425781 19.894531 -10.128906 21.9375 -12.109375 C 23.976562 -14.085938 25.875 -16.097656 27.625 -18.140625 C 29.375 -20.179688 30.671875 -21.816406 31.515625 -23.046875 C 32.035156 -23.703125 32.570312 -24.125 33.125 -24.3125 C 33.675781 -24.507812 34.128906 -24.476562 34.484375 -24.21875 C 34.835938 -23.957031 35.03125 -23.535156 35.0625 -22.953125 C 35.09375 -22.367188 34.882812 -21.691406 34.4375 -20.921875 C 33.394531 -19.097656 31.867188 -16.9375 29.859375 -14.4375 C 27.847656 -11.945312 25.707031 -9.550781 23.4375 -7.25 C 21.164062 -4.945312 18.941406 -2.984375 16.765625 -1.359375 C 14.597656 0.253906 12.835938 1.097656 11.484375 1.171875 C 10.378906 1.234375 9.289062 1.050781 8.21875 0.625 C 7.144531 0.207031 6.171875 -0.367188 5.296875 -1.109375 C 4.421875 -1.859375 3.691406 -2.734375 3.109375 -3.734375 C 2.523438 -4.742188 2.203125 -5.800781 2.140625 -6.90625 C 1.941406 -8.53125 1.941406 -10.75 2.140625 -13.5625 C 2.335938 -16.382812 2.691406 -19.269531 3.203125 -22.21875 C 3.722656 -25.175781 4.390625 -27.984375 5.203125 -30.640625 C 6.015625 -33.296875 6.9375 -35.273438 7.96875 -36.578125 Z M 7.96875 -36.578125 "/></g></g></g><g fill="#425af5" fill-opacity="1"><g transform="translate(407.531784, 228.343636)"><g><path d="M 30.9375 -18.578125 C 30.613281 -16.566406 30.304688 -14.648438 30.015625 -12.828125 C 29.722656 -11.015625 29.539062 -9.5625 29.46875 -8.46875 C 29.40625 -6.84375 29.695312 -5.671875 30.34375 -4.953125 C 31 -4.242188 31.710938 -3.890625 32.484375 -3.890625 C 33.398438 -3.890625 34.519531 -4.34375 35.84375 -5.25 C 37.175781 -6.15625 38.585938 -7.289062 40.078125 -8.65625 C 41.566406 -10.019531 43.054688 -11.507812 44.546875 -13.125 C 46.046875 -14.75 47.425781 -16.289062 48.6875 -17.75 C 49.945312 -19.207031 51.015625 -20.488281 51.890625 -21.59375 C 52.765625 -22.695312 53.367188 -23.410156 53.703125 -23.734375 C 54.085938 -24.117188 54.488281 -24.34375 54.90625 -24.40625 C 55.332031 -24.476562 55.675781 -24.414062 55.9375 -24.21875 C 56.195312 -24.019531 56.328125 -23.660156 56.328125 -23.140625 C 56.328125 -22.628906 56.066406 -21.984375 55.546875 -21.203125 C 54.765625 -19.972656 53.757812 -18.53125 52.53125 -16.875 C 51.300781 -15.21875 49.9375 -13.515625 48.4375 -11.765625 C 46.945312 -10.015625 45.375 -8.296875 43.71875 -6.609375 C 42.070312 -4.921875 40.421875 -3.425781 38.765625 -2.125 C 37.109375 -0.832031 35.519531 0.210938 34 1.015625 C 32.476562 1.828125 31.097656 2.234375 29.859375 2.234375 C 28.953125 2.234375 28.09375 1.972656 27.28125 1.453125 C 26.46875 0.941406 25.738281 0.265625 25.09375 -0.578125 C 24.445312 -1.421875 23.941406 -2.363281 23.578125 -3.40625 C 23.222656 -4.445312 23.082031 -5.484375 23.15625 -6.515625 C 23.21875 -6.972656 23.3125 -7.753906 23.4375 -8.859375 C 20.71875 -5.804688 17.976562 -3.390625 15.21875 -1.609375 C 12.46875 0.171875 9.828125 1.0625 7.296875 1.0625 C 6.390625 1.0625 5.414062 0.832031 4.375 0.375 C 3.34375 -0.0703125 2.421875 -0.8125 1.609375 -1.84375 C 0.796875 -2.882812 0.128906 -4.25 -0.390625 -5.9375 C -0.910156 -7.625 -1.101562 -9.664062 -0.96875 -12.0625 C -0.78125 -15.820312 -0.0390625 -19.390625 1.25 -22.765625 C 2.550781 -26.140625 4.191406 -29.070312 6.171875 -31.5625 C 8.148438 -34.0625 10.390625 -36.039062 12.890625 -37.5 C 15.390625 -38.957031 17.898438 -39.6875 20.421875 -39.6875 C 21.523438 -39.6875 22.53125 -39.410156 23.4375 -38.859375 C 24.351562 -38.304688 25.132812 -37.59375 25.78125 -36.71875 C 26.425781 -35.84375 26.957031 -34.882812 27.375 -33.84375 C 27.800781 -32.8125 28.113281 -31.84375 28.3125 -30.9375 C 28.757812 -32.8125 29.175781 -34.65625 29.5625 -36.46875 C 29.957031 -38.289062 30.347656 -40.015625 30.734375 -41.640625 C 31.390625 -44.035156 32.070312 -46.628906 32.78125 -49.421875 C 33.425781 -51.816406 34.171875 -54.570312 35.015625 -57.6875 C 35.859375 -60.800781 36.800781 -64.078125 37.84375 -67.515625 C 38.488281 -68.023438 39.101562 -68.410156 39.6875 -68.671875 C 40.269531 -68.929688 40.820312 -69.128906 41.34375 -69.265625 C 41.925781 -69.453125 42.476562 -69.546875 43 -69.546875 C 43.644531 -69.546875 44.226562 -69.460938 44.75 -69.296875 C 45.269531 -69.140625 45.707031 -68.71875 46.0625 -68.03125 C 46.414062 -67.351562 46.65625 -66.332031 46.78125 -64.96875 C 46.914062 -63.613281 46.921875 -61.769531 46.796875 -59.4375 C 46.660156 -56.582031 46.15625 -53.46875 45.28125 -50.09375 C 44.40625 -46.71875 43.253906 -43.226562 41.828125 -39.625 C 40.398438 -36.03125 38.757812 -32.429688 36.90625 -28.828125 C 35.0625 -25.234375 33.070312 -21.816406 30.9375 -18.578125 Z M 25.1875 -17.3125 C 25.445312 -18.539062 25.691406 -19.769531 25.921875 -21 C 26.148438 -22.238281 26.425781 -23.507812 26.75 -24.8125 C 26.625 -24.738281 26.507812 -24.671875 26.40625 -24.609375 C 26.3125 -24.546875 26.195312 -24.484375 26.0625 -24.421875 C 25.351562 -24.085938 24.867188 -24.097656 24.609375 -24.453125 C 24.347656 -24.816406 24.21875 -25.390625 24.21875 -26.171875 C 24.21875 -26.554688 24.1875 -27.25 24.125 -28.25 C 24.0625 -29.257812 23.882812 -30.296875 23.59375 -31.359375 C 23.300781 -32.429688 22.863281 -33.375 22.28125 -34.1875 C 21.695312 -35 20.882812 -35.40625 19.84375 -35.40625 C 18.351562 -35.40625 16.828125 -34.644531 15.265625 -33.125 C 13.710938 -31.601562 12.253906 -29.753906 10.890625 -27.578125 C 9.535156 -25.398438 8.398438 -23.078125 7.484375 -20.609375 C 6.578125 -18.148438 6.0625 -15.945312 5.9375 -14 C 5.800781 -10.894531 6.1875 -8.660156 7.09375 -7.296875 C 8.007812 -5.929688 9.242188 -5.25 10.796875 -5.25 C 11.960938 -5.25 13.242188 -5.703125 14.640625 -6.609375 C 16.035156 -7.515625 17.394531 -8.617188 18.71875 -9.921875 C 20.050781 -11.222656 21.285156 -12.550781 22.421875 -13.90625 C 23.554688 -15.269531 24.476562 -16.40625 25.1875 -17.3125 Z M 25.1875 -17.3125 "/></g></g></g><g fill="#425af5" fill-opacity="1"><g transform="translate(448.7093, 228.343636)"><g><path d="M 44.0625 -20.234375 C 42.113281 -17.378906 39.90625 -14.601562 37.4375 -11.90625 C 34.976562 -9.21875 32.367188 -6.820312 29.609375 -4.71875 C 26.859375 -2.613281 24.039062 -0.914062 21.15625 0.375 C 18.269531 1.675781 15.46875 2.328125 12.75 2.328125 C 11.320312 2.328125 9.78125 1.988281 8.125 1.3125 C 6.46875 0.632812 4.957031 -0.414062 3.59375 -1.84375 C 2.238281 -3.269531 1.15625 -5.117188 0.34375 -7.390625 C -0.46875 -9.660156 -0.710938 -12.414062 -0.390625 -15.65625 C -0.128906 -18.320312 0.695312 -21.128906 2.09375 -24.078125 C 3.488281 -27.023438 5.207031 -29.726562 7.25 -32.1875 C 9.289062 -34.65625 11.59375 -36.703125 14.15625 -38.328125 C 16.71875 -39.953125 19.296875 -40.765625 21.890625 -40.765625 C 24.347656 -40.765625 26.128906 -40.144531 27.234375 -38.90625 C 28.335938 -37.675781 28.828125 -36.15625 28.703125 -34.34375 C 28.503906 -32.332031 27.929688 -30.484375 26.984375 -28.796875 C 26.046875 -27.109375 24.925781 -25.582031 23.625 -24.21875 C 22.332031 -22.851562 20.957031 -21.617188 19.5 -20.515625 C 18.039062 -19.421875 16.664062 -18.421875 15.375 -17.515625 C 13.945312 -16.535156 12.582031 -15.609375 11.28125 -14.734375 C 9.988281 -13.859375 8.851562 -13.066406 7.875 -12.359375 C 7.9375 -10.734375 8.226562 -9.367188 8.75 -8.265625 C 9.269531 -7.160156 9.921875 -6.269531 10.703125 -5.59375 C 11.484375 -4.914062 12.375 -4.429688 13.375 -4.140625 C 14.382812 -3.847656 15.40625 -3.703125 16.4375 -3.703125 C 18.644531 -3.703125 20.945312 -4.394531 23.34375 -5.78125 C 25.738281 -7.175781 28.085938 -8.863281 30.390625 -10.84375 C 32.703125 -12.820312 34.84375 -14.878906 36.8125 -17.015625 C 38.789062 -19.160156 40.429688 -21.007812 41.734375 -22.5625 C 42.179688 -23.082031 42.648438 -23.390625 43.140625 -23.484375 C 43.628906 -23.585938 44.019531 -23.523438 44.3125 -23.296875 C 44.601562 -23.066406 44.75 -22.675781 44.75 -22.125 C 44.75 -21.570312 44.519531 -20.941406 44.0625 -20.234375 Z M 19.15625 -35.21875 C 18.382812 -35.21875 17.460938 -34.828125 16.390625 -34.046875 C 15.316406 -33.265625 14.257812 -32.144531 13.21875 -30.6875 C 12.1875 -29.226562 11.21875 -27.441406 10.3125 -25.328125 C 9.40625 -23.222656 8.722656 -20.8125 8.265625 -18.09375 C 9.046875 -18.675781 9.890625 -19.273438 10.796875 -19.890625 C 11.703125 -20.503906 12.609375 -21.171875 13.515625 -21.890625 C 16.304688 -24.023438 18.253906 -25.898438 19.359375 -27.515625 C 20.460938 -29.140625 21.078125 -30.539062 21.203125 -31.71875 C 21.335938 -32.945312 21.207031 -33.835938 20.8125 -34.390625 C 20.425781 -34.941406 19.875 -35.21875 19.15625 -35.21875 Z M 19.15625 -35.21875 "/></g></g></g><g fill="#425af5" fill-opacity="1"><g transform="translate(478.797591, 228.343636)"><g><path d="M 13.71875 -3.3125 C 14.101562 -3.050781 14.601562 -2.921875 15.21875 -2.921875 C 15.832031 -2.921875 16.445312 -3.050781 17.0625 -3.3125 C 17.6875 -3.570312 18.273438 -3.925781 18.828125 -4.375 C 19.378906 -4.832031 19.78125 -5.414062 20.03125 -6.125 C 20.289062 -6.84375 20.289062 -7.863281 20.03125 -9.1875 C 19.78125 -10.519531 19.378906 -11.945312 18.828125 -13.46875 C 18.273438 -15 17.671875 -16.539062 17.015625 -18.09375 C 16.367188 -19.644531 15.820312 -21.070312 15.375 -22.375 C 14.976562 -23.34375 14.648438 -24.25 14.390625 -25.09375 C 14.128906 -25.8125 13.882812 -26.507812 13.65625 -27.1875 C 13.4375 -27.863281 13.257812 -28.332031 13.125 -28.59375 C 12.800781 -28.082031 12.234375 -27.238281 11.421875 -26.0625 C 10.617188 -24.894531 9.742188 -23.679688 8.796875 -22.421875 C 7.859375 -21.160156 6.96875 -19.992188 6.125 -18.921875 C 5.28125 -17.847656 4.695312 -17.117188 4.375 -16.734375 C 3.851562 -16.148438 3.347656 -15.804688 2.859375 -15.703125 C 2.378906 -15.609375 1.976562 -15.707031 1.65625 -16 C 1.332031 -16.289062 1.148438 -16.710938 1.109375 -17.265625 C 1.078125 -17.816406 1.320312 -18.484375 1.84375 -19.265625 C 2.238281 -19.773438 2.820312 -20.597656 3.59375 -21.734375 C 4.375 -22.867188 5.148438 -24.035156 5.921875 -25.234375 C 6.703125 -26.441406 7.414062 -27.515625 8.0625 -28.453125 C 8.71875 -29.390625 9.078125 -29.957031 9.140625 -30.15625 C 9.273438 -30.675781 9.097656 -31.359375 8.609375 -32.203125 C 8.117188 -33.046875 8.035156 -34.015625 8.359375 -35.109375 C 8.617188 -36.023438 9.203125 -37.082031 10.109375 -38.28125 C 11.023438 -39.476562 12.097656 -40.5625 13.328125 -41.53125 C 14.554688 -42.507812 15.816406 -43.238281 17.109375 -43.71875 C 18.410156 -44.207031 19.582031 -44.191406 20.625 -43.671875 C 21.46875 -43.148438 22.144531 -42.582031 22.65625 -41.96875 C 23.175781 -41.351562 23.375 -40.722656 23.25 -40.078125 C 23.113281 -39.753906 22.921875 -39.332031 22.671875 -38.8125 C 22.410156 -38.289062 22.019531 -37.65625 21.5 -36.90625 C 20.976562 -36.164062 20.234375 -35.210938 19.265625 -34.046875 C 19.453125 -32.554688 19.722656 -31.191406 20.078125 -29.953125 C 20.441406 -28.722656 20.785156 -27.65625 21.109375 -26.75 C 21.492188 -25.644531 21.914062 -24.640625 22.375 -23.734375 C 22.957031 -22.566406 23.570312 -21.363281 24.21875 -20.125 C 24.863281 -18.894531 25.445312 -17.679688 25.96875 -16.484375 C 26.488281 -15.285156 26.910156 -14.164062 27.234375 -13.125 C 27.554688 -12.09375 27.65625 -11.21875 27.53125 -10.5 C 27.332031 -9.40625 26.765625 -8.078125 25.828125 -6.515625 C 24.890625 -4.960938 23.722656 -3.457031 22.328125 -2 C 20.929688 -0.539062 19.34375 0.707031 17.5625 1.75 C 15.78125 2.789062 13.914062 3.3125 11.96875 3.3125 C 10.601562 3.3125 9.285156 2.890625 8.015625 2.046875 C 6.753906 1.203125 5.6875 0.210938 4.8125 -0.921875 C 3.9375 -2.054688 3.285156 -3.175781 2.859375 -4.28125 C 2.441406 -5.382812 2.394531 -6.226562 2.71875 -6.8125 C 3.113281 -7.582031 3.472656 -8.195312 3.796875 -8.65625 C 4.117188 -9.113281 4.601562 -9.632812 5.25 -10.21875 C 5.507812 -10.40625 5.832031 -10.628906 6.21875 -10.890625 C 6.550781 -11.085938 7.007812 -11.28125 7.59375 -11.46875 C 8.175781 -11.664062 8.851562 -11.894531 9.625 -12.15625 C 10.28125 -10.144531 10.863281 -8.570312 11.375 -7.4375 C 11.894531 -6.300781 12.316406 -5.410156 12.640625 -4.765625 C 13.035156 -4.054688 13.394531 -3.570312 13.71875 -3.3125 Z M 13.71875 -3.3125 "/></g></g></g></g></g></g></g></g></svg>