<svg xmlns="http://www.w3.org/2000/svg" xmlns:xlink="http://www.w3.org/1999/xlink" width="350" zoomAndPan="magnify" viewBox="0 0 262.5 135.000003" height="180" preserveAspectRatio="xMidYMid meet" version="1.0"><defs><g/><clipPath id="3baebfb90b"><path d="M 17.820312 26.816406 L 78.867188 26.816406 L 78.867188 100.519531 L 17.820312 100.519531 Z M 17.820312 26.816406 " clip-rule="nonzero"/></clipPath><clipPath id="20e0eaaf9b"><path d="M 0.179688 17 L 32 17 L 32 49 L 0.179688 49 Z M 0.179688 17 " clip-rule="nonzero"/></clipPath><clipPath id="3b6e5b0ed9"><rect x="0" width="176" y="0" height="65"/></clipPath></defs><g clip-path="url(#3baebfb90b)"><path fill="#425af5" d="M 48.46875 26.816406 L 40.945312 54.496094 L 17.828125 59.367188 L 36.296875 72.359375 L 29.371094 100.160156 L 48.324219 75.082031 L 36.15625 87.714844 L 40.605469 69.847656 L 28.730469 61.496094 L 43.59375 58.371094 L 48.429688 40.574219 L 53.164062 56.511719 L 78.953125 47.484375 L 55.832031 51.601562 L 48.46875 26.816406 " fill-opacity="1" fill-rule="nonzero"/></g><g transform="matrix(1, 0, 0, 1, 62, 35)"><g clip-path="url(#3b6e5b0ed9)"><g clip-path="url(#20e0eaaf9b)"><g fill="#ffffff" fill-opacity="1"><g transform="translate(0.464928, 48.115163)"><g><path d="M 30.898438 0 L 18.902344 -30.941406 L 12.039062 -30.941406 L 0.261719 0 L 6.300781 0 L 8.691406 -6.824219 L 22.25 -6.824219 L 24.683594 0 Z M 11.644531 -15.167969 C 12.6875 -17.992188 14.167969 -22.121094 15.425781 -25.769531 C 16.6875 -22.121094 18.164062 -17.992188 19.25 -15.167969 L 20.46875 -11.820312 L 10.472656 -11.820312 Z M 11.644531 -15.167969 "/></g></g></g></g><g fill="#ffffff" fill-opacity="1"><g transform="translate(28.62419, 48.115163)"><g><path d="M 16.90625 -9.863281 C 16.90625 -5.867188 14.296875 -4.214844 11.90625 -4.214844 C 9.082031 -4.214844 7.691406 -5.605469 7.691406 -8.472656 L 7.691406 -22.421875 L 2.214844 -22.421875 L 2.214844 -7.5625 C 2.214844 -2.214844 5.386719 0.519531 10.039062 0.519531 C 13.253906 0.519531 15.601562 -1.085938 17.078125 -3.257812 L 17.078125 0 L 22.378906 0 L 22.378906 -22.421875 L 16.90625 -22.421875 Z M 16.90625 -9.863281 "/></g></g></g><g fill="#ffffff" fill-opacity="1"><g transform="translate(50.178147, 48.115163)"><g><path d="M 13.90625 -22.421875 L 9.472656 -22.421875 L 9.472656 -28.941406 L 4.042969 -28.941406 L 4.042969 -22.421875 L 0.566406 -22.421875 L 0.566406 -18.164062 L 4.042969 -18.164062 L 4.042969 -5.5625 C 4.042969 -1.433594 6.300781 0.128906 11.039062 0.128906 C 11.90625 0.128906 12.949219 0.0859375 13.90625 0 L 13.90625 -4.214844 L 12.039062 -4.214844 C 10.210938 -4.214844 9.472656 -4.691406 9.472656 -6.171875 L 9.472656 -18.164062 L 13.90625 -18.164062 Z M 13.90625 -22.421875 "/></g></g></g><g fill="#ffffff" fill-opacity="1"><g transform="translate(62.041429, 48.115163)"><g><path d="M 12.644531 0.519531 C 19.46875 0.519531 24.03125 -4.085938 24.03125 -11.210938 C 24.03125 -18.339844 19.46875 -22.945312 12.644531 -22.945312 C 5.824219 -22.945312 1.214844 -18.339844 1.214844 -11.210938 C 1.214844 -4.085938 5.824219 0.519531 12.644531 0.519531 Z M 12.644531 -3.996094 C 9.082031 -3.996094 6.824219 -6.476562 6.824219 -11.210938 C 6.824219 -15.949219 9.082031 -18.425781 12.644531 -18.425781 C 16.164062 -18.425781 18.46875 -15.949219 18.46875 -11.210938 C 18.46875 -6.476562 16.164062 -3.996094 12.644531 -3.996094 Z M 12.644531 -3.996094 "/></g></g></g><g fill="#ffffff" fill-opacity="1"><g transform="translate(84.247224, 48.115163)"><g><path d="M 27.8125 -22.945312 C 24.683594 -22.945312 22.335938 -21.164062 20.859375 -18.773438 C 19.730469 -21.335938 17.339844 -22.945312 13.90625 -22.945312 C 10.949219 -22.945312 8.863281 -21.378906 7.519531 -19.207031 L 7.519531 -22.421875 L 2.214844 -22.421875 L 2.214844 0 L 7.691406 0 L 7.691406 -12.339844 C 7.691406 -16.558594 9.996094 -18.207031 12.296875 -18.207031 C 14.90625 -18.207031 16.210938 -16.816406 16.210938 -13.949219 L 16.210938 0 L 21.640625 0 L 21.640625 -12.339844 C 21.640625 -16.558594 23.902344 -18.207031 26.292969 -18.207031 C 28.898438 -18.207031 30.160156 -16.816406 30.160156 -13.949219 L 30.160156 0 L 35.632812 0 L 35.632812 -14.820312 C 35.632812 -19.773438 32.808594 -22.945312 27.8125 -22.945312 Z M 27.8125 -22.945312 "/></g></g></g><g fill="#ffffff" fill-opacity="1"><g transform="translate(119.055255, 48.115163)"><g><path d="M 22.378906 0 C 21.773438 -0.867188 21.46875 -2.652344 21.46875 -4.257812 L 21.46875 -16.210938 C 21.46875 -20.25 18.816406 -22.945312 12.125 -22.945312 C 5.128906 -22.945312 2.347656 -20.035156 2.042969 -15.296875 L 7.429688 -15.296875 C 7.648438 -18.035156 8.953125 -18.859375 12.082031 -18.859375 C 15.253906 -18.859375 16.164062 -17.816406 16.164062 -16.078125 C 16.164062 -14.425781 15.078125 -13.777344 12.992188 -13.515625 L 9.605469 -13.210938 C 3.257812 -12.601562 1 -9.953125 1 -6.214844 C 1 -1.867188 4.300781 0.519531 9.082031 0.519531 C 12.386719 0.519531 14.820312 -0.652344 16.296875 -2.738281 C 16.382812 -1.652344 16.558594 -0.609375 16.90625 0 Z M 10.386719 -3.390625 C 7.867188 -3.390625 6.605469 -4.5625 6.605469 -6.429688 C 6.605469 -8.214844 7.605469 -9.300781 10.648438 -9.648438 L 13.601562 -9.996094 C 14.773438 -10.125 15.601562 -10.386719 16.164062 -10.90625 L 16.164062 -8.863281 C 16.164062 -4.953125 13.296875 -3.390625 10.386719 -3.390625 Z M 10.386719 -3.390625 "/></g></g></g><g fill="#ffffff" fill-opacity="1"><g transform="translate(139.435903, 48.115163)"><g><path d="M 13.90625 -22.421875 L 9.472656 -22.421875 L 9.472656 -28.941406 L 4.042969 -28.941406 L 4.042969 -22.421875 L 0.566406 -22.421875 L 0.566406 -18.164062 L 4.042969 -18.164062 L 4.042969 -5.5625 C 4.042969 -1.433594 6.300781 0.128906 11.039062 0.128906 C 11.90625 0.128906 12.949219 0.0859375 13.90625 0 L 13.90625 -4.214844 L 12.039062 -4.214844 C 10.210938 -4.214844 9.472656 -4.691406 9.472656 -6.171875 L 9.472656 -18.164062 L 13.90625 -18.164062 Z M 13.90625 -22.421875 "/></g></g></g><g fill="#ffffff" fill-opacity="1"><g transform="translate(151.299178, 48.115163)"><g><path d="M 12.386719 0.519531 C 17.773438 0.519531 21.640625 -2.433594 22.816406 -6.953125 L 17.511719 -6.953125 C 16.730469 -4.953125 15.035156 -3.738281 12.429688 -3.738281 C 9.257812 -3.738281 7.039062 -5.5625 6.605469 -9.515625 L 23.378906 -9.515625 L 23.378906 -10.820312 C 23.378906 -17.949219 19.164062 -22.945312 12.296875 -22.945312 C 5.648438 -22.945312 1.214844 -18.25 1.214844 -11.210938 C 1.214844 -4.042969 5.78125 0.519531 12.386719 0.519531 Z M 6.648438 -13.339844 C 7.171875 -16.992188 9.34375 -18.6875 12.253906 -18.6875 C 15.515625 -18.6875 17.46875 -16.511719 17.902344 -13.339844 Z M 6.648438 -13.339844 "/></g></g></g></g></g></svg>