<svg xmlns="http://www.w3.org/2000/svg" xmlns:xlink="http://www.w3.org/1999/xlink" width="800" zoomAndPan="magnify" viewBox="0 0 600 225" height="300" preserveAspectRatio="xMidYMid meet" version="1.0"><defs><g/><clipPath id="5c5857a010"><path d="M 47.609375 1.679688 L 181 1.679688 L 181 161.429688 L 47.609375 161.429688 Z M 47.609375 1.679688 " clip-rule="nonzero"/></clipPath></defs><g clip-path="url(#5c5857a010)"><path fill="#425af5" d="M 114.375 1.679688 L 97.984375 61.984375 L 47.621094 72.589844 L 87.855469 100.898438 L 72.769531 161.457031 L 114.058594 106.824219 L 87.550781 134.34375 L 97.246094 95.429688 L 71.378906 77.234375 L 103.753906 70.421875 L 114.285156 31.652344 L 124.597656 66.371094 L 180.78125 46.707031 L 130.414062 55.679688 L 114.375 1.679688 " fill-opacity="1" fill-rule="nonzero"/></g><g fill="#000000" fill-opacity="1"><g transform="translate(136.508614, 143.070532)"><g><path d="M 71.792969 -40.304688 C 69.707031 -31.960938 67.523438 -23.046875 65.628906 -14.511719 C 63.921875 -23.046875 62.023438 -31.960938 59.9375 -40.402344 L 53.015625 -67.523438 L 39.832031 -67.523438 L 32.910156 -40.402344 C 30.917969 -31.960938 28.925781 -23.140625 27.125 -14.605469 C 25.320312 -23.140625 23.046875 -31.960938 20.960938 -40.304688 L 13.941406 -67.523438 L 0.570312 -67.523438 L 19.347656 0 L 33.667969 0 L 40.875 -28.070312 C 42.867188 -35.847656 44.761719 -44.003906 46.375 -51.972656 C 47.988281 -44.003906 49.980469 -35.847656 51.875 -28.070312 L 59.082031 0 L 73.5 0 L 92.183594 -67.523438 L 78.90625 -67.523438 Z M 71.792969 -40.304688 "/></g></g></g><g fill="#000000" fill-opacity="1"><g transform="translate(222.611794, 143.070532)"><g><path d="M 27.597656 1.136719 C 42.488281 1.136719 52.445312 -8.914062 52.445312 -24.46875 C 52.445312 -40.019531 42.488281 -50.074219 27.597656 -50.074219 C 12.707031 -50.074219 2.65625 -40.019531 2.65625 -24.46875 C 2.65625 -8.914062 12.707031 1.136719 27.597656 1.136719 Z M 27.597656 -8.726562 C 19.820312 -8.726562 14.890625 -14.128906 14.890625 -24.46875 C 14.890625 -34.804688 19.820312 -40.210938 27.597656 -40.210938 C 35.28125 -40.210938 40.304688 -34.804688 40.304688 -24.46875 C 40.304688 -14.128906 35.28125 -8.726562 27.597656 -8.726562 Z M 27.597656 -8.726562 "/></g></g></g><g fill="#000000" fill-opacity="1"><g transform="translate(271.068229, 143.070532)"><g><path d="M 31.011719 -49.695312 C 23.425781 -49.695312 18.777344 -45.710938 16.40625 -40.210938 L 16.40625 -48.9375 L 4.835938 -48.9375 L 4.835938 0 L 16.785156 0 L 16.785156 -24.847656 C 16.785156 -34.140625 22.097656 -38.503906 30.917969 -38.503906 L 33.953125 -38.503906 L 33.953125 -49.503906 C 32.910156 -49.695312 32.054688 -49.695312 31.011719 -49.695312 Z M 31.011719 -49.695312 "/></g></g></g><g fill="#000000" fill-opacity="1"><g transform="translate(300.559046, 143.070532)"><g><path d="M 51.875 0 L 32.246094 -30.441406 L 50.738281 -48.9375 L 36.511719 -48.9375 L 16.597656 -28.640625 L 16.597656 -67.523438 L 4.835938 -67.523438 L 4.835938 0 L 16.597656 0 L 16.597656 -15.363281 L 23.992188 -22.761719 L 38.21875 0 Z M 51.875 0 "/></g></g></g><g fill="#000000" fill-opacity="1"><g transform="translate(346.075813, 143.070532)"><g><path d="M 31.960938 -50.074219 C 25.132812 -50.074219 20.105469 -47.324219 16.785156 -42.582031 L 16.785156 -67.523438 L 4.835938 -67.523438 L 4.835938 0 L 16.3125 0 L 16.3125 -7.019531 C 19.632812 -1.898438 24.847656 1.136719 31.960938 1.136719 C 45.425781 1.136719 53.867188 -8.914062 53.867188 -24.46875 C 53.867188 -40.019531 45.425781 -50.074219 31.960938 -50.074219 Z M 29.113281 -8.726562 C 21.339844 -8.726562 16.5 -14.128906 16.5 -24.46875 C 16.5 -34.804688 21.339844 -40.210938 29.113281 -40.210938 C 36.890625 -40.210938 41.726562 -35.183594 41.726562 -24.847656 C 41.726562 -14.511719 36.890625 -8.726562 29.113281 -8.726562 Z M 29.113281 -8.726562 "/></g></g></g><g fill="#000000" fill-opacity="1"><g transform="translate(395.954679, 143.070532)"><g><path d="M 27.597656 1.136719 C 42.488281 1.136719 52.445312 -8.914062 52.445312 -24.46875 C 52.445312 -40.019531 42.488281 -50.074219 27.597656 -50.074219 C 12.707031 -50.074219 2.65625 -40.019531 2.65625 -24.46875 C 2.65625 -8.914062 12.707031 1.136719 27.597656 1.136719 Z M 27.597656 -8.726562 C 19.820312 -8.726562 14.890625 -14.128906 14.890625 -24.46875 C 14.890625 -34.804688 19.820312 -40.210938 27.597656 -40.210938 C 35.28125 -40.210938 40.304688 -34.804688 40.304688 -24.46875 C 40.304688 -14.128906 35.28125 -8.726562 27.597656 -8.726562 Z M 27.597656 -8.726562 "/></g></g></g><g fill="#000000" fill-opacity="1"><g transform="translate(444.411114, 143.070532)"><g><path d="M 30.347656 -48.9375 L 20.675781 -48.9375 L 20.675781 -63.160156 L 8.820312 -63.160156 L 8.820312 -48.9375 L 1.234375 -48.9375 L 1.234375 -39.640625 L 8.820312 -39.640625 L 8.820312 -12.140625 C 8.820312 -3.128906 13.75 0.285156 24.089844 0.285156 C 25.984375 0.285156 28.261719 0.191406 30.347656 0 L 30.347656 -9.199219 L 26.269531 -9.199219 C 22.285156 -9.199219 20.675781 -10.242188 20.675781 -13.46875 L 20.675781 -39.640625 L 30.347656 -39.640625 Z M 30.347656 -48.9375 "/></g></g></g><g fill="#000000" fill-opacity="1"><g transform="translate(470.298472, 143.070532)"><g><path d="M 24.089844 1.328125 C 37.746094 1.328125 45.804688 -4.171875 45.804688 -14.035156 C 45.804688 -22.476562 40.589844 -26.839844 28.832031 -28.925781 L 22.667969 -29.875 C 17.355469 -30.820312 14.511719 -32.246094 14.511719 -35.847656 C 14.511719 -39.359375 17.261719 -41.539062 23.046875 -41.539062 C 29.210938 -41.539062 33.097656 -39.738281 33.382812 -33.476562 L 44.667969 -33.476562 C 44.289062 -43.53125 38.125 -50.074219 23.046875 -50.074219 C 9.957031 -50.074219 2.75 -44.480469 2.75 -35.28125 C 2.75 -26.933594 8.25 -22.285156 18.777344 -20.484375 L 24.375 -19.535156 C 31.769531 -18.304688 33.953125 -16.597656 33.953125 -13.085938 C 33.953125 -9.390625 31.203125 -7.207031 24.277344 -7.207031 C 17.164062 -7.207031 14.035156 -9.390625 13.371094 -15.554688 L 1.707031 -15.554688 C 2.464844 -3.699219 10.148438 1.328125 24.089844 1.328125 Z M 24.089844 1.328125 "/></g></g></g><g fill="#425af5" fill-opacity="1"><g transform="translate(135.289864, 194.82053)"><g/></g></g><g fill="#425af5" fill-opacity="1"><g transform="translate(149.659855, 194.82053)"><g/></g></g><g fill="#425af5" fill-opacity="1"><g transform="translate(164.029845, 194.82053)"><g/></g></g><g fill="#425af5" fill-opacity="1"><g transform="translate(178.399835, 194.82053)"><g/></g></g><g fill="#425af5" fill-opacity="1"><g transform="translate(192.769826, 194.82053)"><g/></g></g><g fill="#425af5" fill-opacity="1"><g transform="translate(207.139816, 194.82053)"><g/></g></g><g fill="#425af5" fill-opacity="1"><g transform="translate(221.509807, 194.82053)"><g/></g></g><g fill="#425af5" fill-opacity="1"><g transform="translate(235.879797, 194.82053)"><g/></g></g><g fill="#425af5" fill-opacity="1"><g transform="translate(250.249787, 194.82053)"><g/></g></g><g fill="#425af5" fill-opacity="1"><g transform="translate(264.629706, 194.82053)"><g><path d="M 25.5625 -23.5 C 26.5 -25.363281 27.4375 -27.21875 28.375 -29.0625 C 29.3125 -30.914062 30.15625 -32.644531 30.90625 -34.25 C 31.664062 -35.851562 32.3125 -37.285156 32.84375 -38.546875 C 33.375 -39.816406 33.6875 -40.832031 33.78125 -41.59375 C 33.863281 -42.394531 33.796875 -43.082031 33.578125 -43.65625 C 33.359375 -44.238281 32.988281 -44.707031 32.46875 -45.0625 C 31.957031 -45.414062 31.359375 -45.691406 30.671875 -45.890625 C 29.984375 -46.097656 29.21875 -46.222656 28.375 -46.265625 C 26.90625 -46.347656 25.15625 -46.3125 23.125 -46.15625 C 21.101562 -46 19.15625 -45.707031 17.28125 -45.28125 C 15.414062 -44.863281 13.804688 -44.273438 12.453125 -43.515625 C 11.097656 -42.765625 10.375 -41.832031 10.28125 -40.71875 C 10.238281 -40.09375 10.347656 -39.535156 10.609375 -39.046875 C 10.835938 -38.648438 11.25 -38.273438 11.84375 -37.921875 C 12.445312 -37.566406 13.347656 -37.429688 14.546875 -37.515625 C 14.773438 -37.515625 15.046875 -37.535156 15.359375 -37.578125 C 15.617188 -37.628906 15.945312 -37.6875 16.34375 -37.75 C 16.75 -37.8125 17.21875 -37.910156 17.75 -38.046875 L 14.484375 -33.640625 C 13.859375 -32.753906 13.191406 -32.222656 12.484375 -32.046875 C 11.773438 -31.867188 11.128906 -31.820312 10.546875 -31.90625 C 10.234375 -31.957031 9.617188 -32.113281 8.703125 -32.375 C 7.796875 -32.644531 6.882812 -33.046875 5.96875 -33.578125 C 5.0625 -34.109375 4.273438 -34.828125 3.609375 -35.734375 C 2.941406 -36.648438 2.671875 -37.800781 2.796875 -39.1875 C 2.984375 -40.789062 3.675781 -42.269531 4.875 -43.625 C 6.070312 -44.976562 7.75 -46.144531 9.90625 -47.125 C 12.070312 -48.101562 14.65625 -48.859375 17.65625 -49.390625 C 20.65625 -49.929688 24.050781 -50.203125 27.84375 -50.203125 C 30.6875 -50.203125 32.953125 -49.898438 34.640625 -49.296875 C 36.335938 -48.703125 37.570312 -47.925781 38.34375 -46.96875 C 39.125 -46.007812 39.503906 -44.894531 39.484375 -43.625 C 39.460938 -42.351562 39.1875 -41.050781 38.65625 -39.71875 C 38.382812 -39.09375 37.992188 -38.234375 37.484375 -37.140625 C 36.972656 -36.054688 36.359375 -34.789062 35.640625 -33.34375 C 34.929688 -31.894531 34.175781 -30.300781 33.375 -28.5625 C 32.570312 -26.832031 31.769531 -25.035156 30.96875 -23.171875 C 32.175781 -23.078125 33.28125 -22.960938 34.28125 -22.828125 C 35.28125 -22.691406 36.070312 -22.582031 36.65625 -22.5 C 37.320312 -22.320312 37.539062 -22.03125 37.3125 -21.625 C 36.914062 -20.820312 36.523438 -20.21875 36.140625 -19.8125 C 35.765625 -19.414062 35.351562 -19.140625 34.90625 -18.984375 C 34.46875 -18.835938 33.976562 -18.773438 33.4375 -18.796875 C 32.90625 -18.816406 32.304688 -18.847656 31.640625 -18.890625 C 31.242188 -18.890625 30.84375 -18.898438 30.4375 -18.921875 C 30.039062 -18.941406 29.617188 -18.976562 29.171875 -19.03125 C 28.328125 -17.019531 27.515625 -15.035156 26.734375 -13.078125 C 25.953125 -11.117188 25.238281 -9.257812 24.59375 -7.5 C 23.945312 -5.75 23.378906 -4.140625 22.890625 -2.671875 C 22.398438 -1.203125 22.066406 0.0195312 21.890625 1 C 21.628906 2.382812 21.429688 3.675781 21.296875 4.875 C 21.203125 5.894531 21.15625 6.960938 21.15625 8.078125 C 21.15625 9.191406 21.335938 10.082031 21.703125 10.75 C 20.765625 11.019531 19.945312 11.242188 19.25 11.421875 C 18.5625 11.597656 17.972656 11.726562 17.484375 11.8125 C 16.953125 11.945312 16.507812 12.0625 16.15625 12.15625 C 14.90625 12.457031 14.023438 12.421875 13.515625 12.046875 C 13.003906 11.671875 12.859375 10.769531 13.078125 9.34375 C 13.171875 8.363281 13.316406 7.257812 13.515625 6.03125 C 13.710938 4.8125 14.023438 3.429688 14.453125 1.890625 C 14.878906 0.359375 15.4375 -1.347656 16.125 -3.234375 C 16.8125 -5.128906 17.691406 -7.234375 18.765625 -9.546875 C 19.378906 -10.878906 20.085938 -12.359375 20.890625 -13.984375 C 21.691406 -15.609375 22.539062 -17.351562 23.4375 -19.21875 C 21.476562 -19.21875 19.363281 -19.085938 17.09375 -18.828125 C 15.84375 -18.648438 14.617188 -18.445312 13.421875 -18.21875 C 12.390625 -18 11.285156 -17.742188 10.109375 -17.453125 C 8.929688 -17.160156 7.832031 -16.835938 6.8125 -16.484375 C 6.675781 -16.835938 6.597656 -17.191406 6.578125 -17.546875 C 6.554688 -17.910156 6.566406 -18.25 6.609375 -18.5625 C 6.648438 -18.875 6.71875 -19.1875 6.8125 -19.5 C 6.894531 -19.800781 7.023438 -20.109375 7.203125 -20.421875 C 7.472656 -20.960938 7.898438 -21.632812 8.484375 -22.4375 C 10.566406 -22.695312 12.566406 -22.894531 14.484375 -23.03125 C 16.398438 -23.164062 18.09375 -23.273438 19.5625 -23.359375 C 21.289062 -23.453125 22.914062 -23.5 24.4375 -23.5 C 24.65625 -23.539062 24.84375 -23.550781 25 -23.53125 C 25.15625 -23.507812 25.34375 -23.5 25.5625 -23.5 Z M 25.5625 -23.5 "/></g></g></g><g fill="#425af5" fill-opacity="1"><g transform="translate(299.889924, 194.82053)"><g><path d="M 19.765625 -10.609375 C 19.316406 -8.921875 18.710938 -7.34375 17.953125 -5.875 C 17.203125 -4.40625 16.300781 -3.132812 15.25 -2.0625 C 14.207031 -1 13.03125 -0.171875 11.71875 0.421875 C 10.40625 1.023438 8.96875 1.328125 7.40625 1.328125 C 5.582031 1.328125 4.144531 0.9375 3.09375 0.15625 C 2.050781 -0.613281 1.273438 -1.578125 0.765625 -2.734375 C 0.253906 -3.890625 -0.0507812 -5.15625 -0.15625 -6.53125 C -0.269531 -7.914062 -0.328125 -9.210938 -0.328125 -10.421875 C -0.328125 -11.265625 -0.226562 -12.195312 -0.03125 -13.21875 C 0.164062 -14.238281 0.441406 -15.28125 0.796875 -16.34375 C 1.148438 -17.414062 1.601562 -18.484375 2.15625 -19.546875 C 2.71875 -20.617188 3.378906 -21.601562 4.140625 -22.5 C 4.410156 -23.25 4.820312 -23.914062 5.375 -24.5 C 5.925781 -25.082031 6.566406 -25.5625 7.296875 -25.9375 C 8.035156 -26.3125 8.828125 -26.597656 9.671875 -26.796875 C 10.523438 -27.003906 11.351562 -27.109375 12.15625 -27.109375 C 12.28125 -27.109375 12.398438 -27.082031 12.515625 -27.03125 C 12.628906 -26.988281 12.753906 -26.945312 12.890625 -26.90625 C 13.460938 -26.863281 14.179688 -26.640625 15.046875 -26.234375 C 15.921875 -25.835938 16.769531 -25.238281 17.59375 -24.4375 C 18.414062 -23.632812 19.113281 -22.617188 19.6875 -21.390625 C 20.269531 -20.171875 20.5625 -18.691406 20.5625 -16.953125 C 20.5625 -16.597656 20.535156 -16.164062 20.484375 -15.65625 C 20.441406 -15.144531 20.398438 -14.710938 20.359375 -14.359375 C 21.378906 -14.753906 22.445312 -15.238281 23.5625 -15.8125 C 24.675781 -16.394531 25.753906 -17.007812 26.796875 -17.65625 C 27.847656 -18.300781 28.816406 -18.957031 29.703125 -19.625 C 30.597656 -20.289062 31.3125 -20.890625 31.84375 -21.421875 C 32.289062 -21.828125 32.671875 -22.050781 32.984375 -22.09375 C 33.296875 -22.132812 33.515625 -22.046875 33.640625 -21.828125 C 33.773438 -21.609375 33.796875 -21.296875 33.703125 -20.890625 C 33.617188 -20.492188 33.378906 -20.050781 32.984375 -19.5625 C 32.753906 -19.289062 32.179688 -18.753906 31.265625 -17.953125 C 30.359375 -17.148438 29.28125 -16.28125 28.03125 -15.34375 C 26.789062 -14.414062 25.4375 -13.503906 23.96875 -12.609375 C 22.5 -11.722656 21.097656 -11.054688 19.765625 -10.609375 Z M 8.484375 -20.765625 C 8.347656 -20.359375 8.28125 -19.9375 8.28125 -19.5 C 8.28125 -18.78125 8.320312 -18.03125 8.40625 -17.25 C 8.5 -16.476562 8.722656 -15.78125 9.078125 -15.15625 C 9.429688 -14.53125 10 -14.003906 10.78125 -13.578125 C 11.5625 -13.160156 12.640625 -12.953125 14.015625 -12.953125 C 14.242188 -12.953125 14.46875 -12.960938 14.6875 -12.984375 C 14.90625 -13.003906 15.128906 -13.035156 15.359375 -13.078125 C 15.484375 -13.660156 15.601562 -14.1875 15.71875 -14.65625 C 15.832031 -15.125 15.890625 -15.535156 15.890625 -15.890625 C 15.972656 -16.734375 15.96875 -17.597656 15.875 -18.484375 C 15.789062 -19.378906 15.625 -20.191406 15.375 -20.921875 C 15.132812 -21.660156 14.828125 -22.265625 14.453125 -22.734375 C 14.078125 -23.203125 13.617188 -23.4375 13.078125 -23.4375 C 12.234375 -23.4375 11.421875 -23.203125 10.640625 -22.734375 C 9.867188 -22.265625 9.148438 -21.609375 8.484375 -20.765625 Z M 4.203125 -9.015625 C 4.203125 -8.210938 4.242188 -7.421875 4.328125 -6.640625 C 4.421875 -5.859375 4.601562 -5.164062 4.875 -4.5625 C 5.144531 -3.96875 5.5 -3.476562 5.9375 -3.09375 C 6.382812 -2.71875 6.960938 -2.53125 7.671875 -2.53125 C 8.472656 -2.53125 9.207031 -2.71875 9.875 -3.09375 C 10.539062 -3.476562 11.140625 -3.96875 11.671875 -4.5625 C 12.210938 -5.164062 12.691406 -5.859375 13.109375 -6.640625 C 13.535156 -7.421875 13.90625 -8.234375 14.21875 -9.078125 C 13.90625 -9.035156 13.601562 -9.003906 13.3125 -8.984375 C 13.03125 -8.960938 12.707031 -8.953125 12.34375 -8.953125 C 10.65625 -8.953125 9.195312 -9.453125 7.96875 -10.453125 C 6.75 -11.453125 5.804688 -12.726562 5.140625 -14.28125 C 4.867188 -13.351562 4.644531 -12.441406 4.46875 -11.546875 C 4.289062 -10.660156 4.203125 -9.816406 4.203125 -9.015625 Z M 4.203125 -9.015625 "/></g></g></g><g fill="#425af5" fill-opacity="1"><g transform="translate(322.00198, 194.82053)"><g><path d="M -2.53125 -0.328125 C -2.84375 0.160156 -3.1875 0.484375 -3.5625 0.640625 C -3.945312 0.796875 -4.28125 0.816406 -4.5625 0.703125 C -4.851562 0.585938 -5.046875 0.351562 -5.140625 0 C -5.234375 -0.351562 -5.144531 -0.796875 -4.875 -1.328125 C -4.738281 -1.597656 -4.4375 -2.203125 -3.96875 -3.140625 C -3.5 -4.078125 -2.941406 -5.203125 -2.296875 -6.515625 C -1.648438 -7.828125 -0.945312 -9.25 -0.1875 -10.78125 C 0.5625 -12.3125 1.28125 -13.765625 1.96875 -15.140625 C 2.65625 -16.523438 3.285156 -17.765625 3.859375 -18.859375 C 4.441406 -19.953125 4.867188 -20.742188 5.140625 -21.234375 C 4.648438 -21.671875 4.316406 -21.988281 4.140625 -22.1875 C 3.960938 -22.394531 3.828125 -22.832031 3.734375 -23.5 C 3.648438 -24.070312 3.785156 -24.828125 4.140625 -25.765625 C 4.492188 -26.703125 4.957031 -27.601562 5.53125 -28.46875 C 6.113281 -29.34375 6.757812 -30.085938 7.46875 -30.703125 C 8.1875 -31.328125 8.878906 -31.640625 9.546875 -31.640625 C 10.796875 -31.640625 11.675781 -31.238281 12.1875 -30.4375 C 12.695312 -29.632812 12.992188 -28.8125 13.078125 -27.96875 C 13.171875 -27.394531 13.128906 -26.660156 12.953125 -25.765625 C 12.773438 -24.878906 12.441406 -24.078125 11.953125 -23.359375 C 12.085938 -23.273438 12.265625 -23.175781 12.484375 -23.0625 C 12.703125 -22.945312 13.054688 -22.890625 13.546875 -22.890625 C 14.265625 -22.890625 14.765625 -22.9375 15.046875 -23.03125 C 15.335938 -23.125 15.796875 -23.171875 16.421875 -23.171875 C 17.179688 -23.171875 17.804688 -22.976562 18.296875 -22.59375 C 18.785156 -22.21875 19.179688 -21.75 19.484375 -21.1875 C 19.796875 -20.632812 20.03125 -20.035156 20.1875 -19.390625 C 20.34375 -18.742188 20.445312 -18.15625 20.5 -17.625 C 20.625 -16.507812 20.332031 -15.347656 19.625 -14.140625 C 18.914062 -12.941406 18.046875 -11.632812 17.015625 -10.21875 C 16.398438 -9.320312 15.78125 -8.316406 15.15625 -7.203125 C 14.53125 -6.097656 14.265625 -5.097656 14.359375 -4.203125 C 14.441406 -3.628906 14.59375 -3.160156 14.8125 -2.796875 C 15.039062 -2.441406 15.664062 -2.265625 16.6875 -2.265625 C 17.445312 -2.265625 18.28125 -2.539062 19.1875 -3.09375 C 20.101562 -3.65625 21.039062 -4.367188 22 -5.234375 C 22.957031 -6.109375 23.898438 -7.066406 24.828125 -8.109375 C 25.765625 -9.160156 26.632812 -10.1875 27.4375 -11.1875 C 28.238281 -12.1875 28.914062 -13.085938 29.46875 -13.890625 C 30.03125 -14.691406 30.441406 -15.269531 30.703125 -15.625 C 30.929688 -15.976562 31.222656 -16.222656 31.578125 -16.359375 C 31.929688 -16.492188 32.238281 -16.492188 32.5 -16.359375 C 32.769531 -16.222656 32.9375 -15.953125 33 -15.546875 C 33.070312 -15.148438 32.910156 -14.617188 32.515625 -13.953125 C 32.242188 -13.503906 31.785156 -12.789062 31.140625 -11.8125 C 30.492188 -10.832031 29.710938 -9.742188 28.796875 -8.546875 C 27.890625 -7.347656 26.878906 -6.113281 25.765625 -4.84375 C 24.648438 -3.570312 23.476562 -2.410156 22.25 -1.359375 C 21.03125 -0.316406 19.804688 0.535156 18.578125 1.203125 C 17.359375 1.867188 16.195312 2.203125 15.09375 2.203125 C 13.925781 2.203125 12.960938 1.976562 12.203125 1.53125 C 11.453125 1.09375 10.84375 0.550781 10.375 -0.09375 C 9.914062 -0.738281 9.582031 -1.453125 9.375 -2.234375 C 9.175781 -3.015625 9.097656 -3.738281 9.140625 -4.40625 C 9.191406 -4.9375 9.335938 -5.503906 9.578125 -6.109375 C 9.828125 -6.710938 10.117188 -7.335938 10.453125 -7.984375 C 10.785156 -8.628906 11.140625 -9.269531 11.515625 -9.90625 C 11.890625 -10.550781 12.234375 -11.1875 12.546875 -11.8125 C 13.304688 -13.101562 13.921875 -14.203125 14.390625 -15.109375 C 14.859375 -16.023438 15.09375 -16.796875 15.09375 -17.421875 C 15.09375 -17.828125 15 -18.179688 14.8125 -18.484375 C 14.632812 -18.796875 14.347656 -18.953125 13.953125 -18.953125 C 13.679688 -18.953125 13.488281 -18.941406 13.375 -18.921875 C 13.269531 -18.898438 13.160156 -18.890625 13.046875 -18.890625 C 12.941406 -18.890625 12.785156 -18.878906 12.578125 -18.859375 C 12.378906 -18.835938 12.082031 -18.828125 11.6875 -18.828125 C 11.101562 -18.828125 10.609375 -18.914062 10.203125 -19.09375 C 9.804688 -19.269531 9.429688 -19.40625 9.078125 -19.5 C 8.898438 -19.1875 8.5 -18.515625 7.875 -17.484375 C 7.25 -16.460938 6.523438 -15.257812 5.703125 -13.875 C 4.878906 -12.5 4.007812 -11.054688 3.09375 -9.546875 C 2.1875 -8.035156 1.332031 -6.625 0.53125 -5.3125 C -0.269531 -4 -0.945312 -2.882812 -1.5 -1.96875 C -2.0625 -1.050781 -2.40625 -0.503906 -2.53125 -0.328125 Z M -2.53125 -0.328125 "/></g></g></g><g fill="#425af5" fill-opacity="1"><g transform="translate(344.981681, 194.82053)"><g><path d="M 31.109375 -3.078125 C 31.109375 -4.003906 31.207031 -5.066406 31.40625 -6.265625 C 31.601562 -7.472656 31.859375 -8.707031 32.171875 -9.96875 C 32.484375 -11.238281 32.796875 -12.472656 33.109375 -13.671875 C 33.421875 -14.878906 33.6875 -15.953125 33.90625 -16.890625 C 34.175781 -18.046875 34.15625 -18.9375 33.84375 -19.5625 C 33.53125 -20.1875 33 -20.5 32.25 -20.5 C 31.882812 -20.5 31.179688 -20.1875 30.140625 -19.5625 C 29.097656 -18.9375 27.960938 -17.851562 26.734375 -16.3125 C 25.515625 -14.78125 24.3125 -12.710938 23.125 -10.109375 C 21.945312 -7.503906 21.023438 -4.203125 20.359375 -0.203125 C 19.515625 0.242188 18.710938 0.535156 17.953125 0.671875 C 17.554688 0.753906 17.203125 0.820312 16.890625 0.875 C 15.992188 0.914062 15.410156 0.769531 15.140625 0.4375 C 14.878906 0.101562 14.925781 -0.707031 15.28125 -2 C 15.457031 -2.625 15.78125 -3.625 16.25 -5 C 16.71875 -6.382812 17.175781 -7.890625 17.625 -9.515625 C 18.070312 -11.140625 18.460938 -12.765625 18.796875 -14.390625 C 19.128906 -16.015625 19.296875 -17.425781 19.296875 -18.625 C 19.296875 -19.46875 19.148438 -20.046875 18.859375 -20.359375 C 18.566406 -20.671875 18.15625 -20.828125 17.625 -20.828125 C 17.21875 -20.828125 16.546875 -20.601562 15.609375 -20.15625 C 14.679688 -19.71875 13.640625 -18.851562 12.484375 -17.5625 C 11.328125 -16.269531 10.179688 -14.476562 9.046875 -12.1875 C 7.910156 -9.894531 6.941406 -6.921875 6.140625 -3.265625 L 6.140625 -3.40625 C 6.054688 -3.050781 5.96875 -2.695312 5.875 -2.34375 C 5.78125 -2.03125 5.710938 -1.691406 5.671875 -1.328125 C 5.628906 -0.972656 5.5625 -0.640625 5.46875 -0.328125 L 2.140625 1.140625 C 1.910156 1.222656 1.628906 1.285156 1.296875 1.328125 C 0.960938 1.378906 0.648438 1.328125 0.359375 1.171875 C 0.078125 1.015625 -0.128906 0.691406 -0.265625 0.203125 C -0.398438 -0.285156 -0.359375 -1.019531 -0.140625 -2 L 4.078125 -19.421875 C 4.203125 -20.003906 4.3125 -20.5625 4.40625 -21.09375 C 4.5 -21.582031 4.554688 -22.0625 4.578125 -22.53125 C 4.597656 -23 4.5625 -23.390625 4.46875 -23.703125 C 5.226562 -24.054688 5.894531 -24.320312 6.46875 -24.5 C 7.050781 -24.675781 7.519531 -24.8125 7.875 -24.90625 C 8.320312 -25.03125 8.703125 -25.09375 9.015625 -25.09375 C 10.441406 -25.09375 10.910156 -23.867188 10.421875 -21.421875 C 10.234375 -20.710938 9.960938 -19.671875 9.609375 -18.296875 C 10.453125 -19.359375 11.351562 -20.367188 12.3125 -21.328125 C 13.269531 -22.285156 14.238281 -23.140625 15.21875 -23.890625 C 16.195312 -24.648438 17.1875 -25.253906 18.1875 -25.703125 C 19.1875 -26.148438 20.175781 -26.375 21.15625 -26.375 C 21.914062 -26.375 22.550781 -26.148438 23.0625 -25.703125 C 23.570312 -25.253906 23.972656 -24.660156 24.265625 -23.921875 C 24.554688 -23.191406 24.722656 -22.328125 24.765625 -21.328125 C 24.804688 -20.328125 24.765625 -19.289062 24.640625 -18.21875 C 25.347656 -19.15625 26.132812 -20.101562 27 -21.0625 C 27.875 -22.019531 28.785156 -22.875 29.734375 -23.625 C 30.691406 -24.382812 31.679688 -25.007812 32.703125 -25.5 C 33.734375 -25.988281 34.757812 -26.234375 35.78125 -26.234375 C 36.976562 -26.234375 37.898438 -25.875 38.546875 -25.15625 C 39.191406 -24.445312 39.632812 -23.535156 39.875 -22.421875 C 40.125 -21.316406 40.191406 -20.117188 40.078125 -18.828125 C 39.972656 -17.535156 39.785156 -16.289062 39.515625 -15.09375 L 37.25 -6.078125 C 36.757812 -3.847656 37.226562 -2.734375 38.65625 -2.734375 C 39.769531 -2.734375 40.992188 -3.265625 42.328125 -4.328125 C 43.660156 -5.398438 44.957031 -6.671875 46.21875 -8.140625 C 47.488281 -9.609375 48.679688 -11.117188 49.796875 -12.671875 C 50.910156 -14.234375 51.847656 -15.484375 52.609375 -16.421875 C 52.867188 -16.734375 53.144531 -16.910156 53.4375 -16.953125 C 53.726562 -16.992188 53.972656 -16.9375 54.171875 -16.78125 C 54.367188 -16.632812 54.476562 -16.378906 54.5 -16.015625 C 54.53125 -15.660156 54.410156 -15.21875 54.140625 -14.6875 C 53.253906 -13.125 52.164062 -11.394531 50.875 -9.5 C 49.582031 -7.613281 48.164062 -5.847656 46.625 -4.203125 C 45.09375 -2.554688 43.457031 -1.175781 41.71875 -0.0625 C 39.988281 1.050781 38.1875 1.609375 36.3125 1.609375 C 35.6875 1.609375 35.070312 1.539062 34.46875 1.40625 C 33.875 1.269531 33.320312 1.023438 32.8125 0.671875 C 32.300781 0.316406 31.890625 -0.160156 31.578125 -0.765625 C 31.265625 -1.367188 31.109375 -2.140625 31.109375 -3.078125 Z M 31.109375 -3.078125 "/></g></g></g><g fill="#425af5" fill-opacity="1"><g transform="translate(389.252061, 194.82053)"><g><path d="M 34.25 -13.28125 C 33.625 -12.394531 32.820312 -11.296875 31.84375 -9.984375 C 30.863281 -8.671875 29.847656 -7.359375 28.796875 -6.046875 C 27.753906 -4.734375 26.734375 -3.53125 25.734375 -2.4375 C 24.734375 -1.34375 23.898438 -0.578125 23.234375 -0.140625 C 22.785156 0.128906 22.269531 0.351562 21.6875 0.53125 C 21.113281 0.707031 20.523438 0.816406 19.921875 0.859375 C 19.328125 0.910156 18.757812 0.878906 18.21875 0.765625 C 17.6875 0.648438 17.222656 0.460938 16.828125 0.203125 C 16.421875 -0.109375 16.085938 -0.554688 15.828125 -1.140625 C 15.597656 -1.628906 15.382812 -2.269531 15.1875 -3.0625 C 14.988281 -3.863281 14.910156 -4.867188 14.953125 -6.078125 C 13.878906 -4.296875 12.695312 -2.925781 11.40625 -1.96875 C 10.125 -1.007812 8.90625 -0.304688 7.75 0.140625 C 6.40625 0.628906 5.066406 0.914062 3.734375 1 C 3.109375 1 2.441406 0.785156 1.734375 0.359375 C 1.023438 -0.0546875 0.425781 -0.71875 -0.0625 -1.625 C -0.550781 -2.539062 -0.863281 -3.722656 -1 -5.171875 C -1.132812 -6.617188 -0.957031 -8.34375 -0.46875 -10.34375 C 0.15625 -13.0625 1.144531 -15.53125 2.5 -17.75 C 3.863281 -19.976562 5.34375 -21.878906 6.9375 -23.453125 C 8.539062 -25.035156 10.117188 -26.226562 11.671875 -27.03125 C 13.234375 -27.832031 14.523438 -28.191406 15.546875 -28.109375 C 16.753906 -27.878906 17.734375 -27.519531 18.484375 -27.03125 C 19.109375 -26.59375 19.519531 -25.9375 19.71875 -25.0625 C 19.925781 -24.195312 19.5625 -23.050781 18.625 -21.625 C 19.25 -21.757812 19.769531 -21.847656 20.1875 -21.890625 C 20.613281 -21.941406 20.9375 -21.96875 21.15625 -21.96875 C 21.425781 -21.96875 21.609375 -21.941406 21.703125 -21.890625 C 21.742188 -21.804688 21.765625 -21.617188 21.765625 -21.328125 C 21.765625 -21.035156 21.695312 -20.507812 21.5625 -19.75 C 21.425781 -19 21.222656 -17.976562 20.953125 -16.6875 C 20.691406 -15.394531 20.335938 -13.726562 19.890625 -11.6875 C 19.804688 -11.28125 19.726562 -10.910156 19.65625 -10.578125 C 19.59375 -10.242188 19.523438 -9.910156 19.453125 -9.578125 C 19.390625 -9.242188 19.3125 -8.851562 19.21875 -8.40625 C 19.132812 -7.96875 19.023438 -7.414062 18.890625 -6.75 C 18.847656 -6.34375 18.835938 -5.90625 18.859375 -5.4375 C 18.878906 -4.96875 18.957031 -4.53125 19.09375 -4.125 C 19.226562 -3.726562 19.4375 -3.40625 19.71875 -3.15625 C 20.007812 -2.914062 20.425781 -2.796875 20.96875 -2.796875 C 21.40625 -2.796875 21.976562 -3.070312 22.6875 -3.625 C 23.40625 -4.1875 24.164062 -4.898438 24.96875 -5.765625 C 25.769531 -6.640625 26.601562 -7.597656 27.46875 -8.640625 C 28.332031 -9.691406 29.144531 -10.707031 29.90625 -11.6875 C 30.664062 -12.664062 31.34375 -13.53125 31.9375 -14.28125 C 32.539062 -15.039062 32.976562 -15.597656 33.25 -15.953125 C 33.601562 -16.359375 33.957031 -16.59375 34.3125 -16.65625 C 34.664062 -16.71875 34.929688 -16.613281 35.109375 -16.34375 C 35.285156 -16.082031 35.316406 -15.6875 35.203125 -15.15625 C 35.097656 -14.625 34.78125 -14 34.25 -13.28125 Z M 14.6875 -10.34375 C 14.90625 -11.238281 15.171875 -12.285156 15.484375 -13.484375 C 15.796875 -14.679688 16.0625 -15.835938 16.28125 -16.953125 C 16.507812 -18.066406 16.675781 -18.988281 16.78125 -19.71875 C 16.894531 -20.457031 16.863281 -20.804688 16.6875 -20.765625 C 16.46875 -20.710938 16.222656 -20.644531 15.953125 -20.5625 C 15.734375 -20.46875 15.441406 -20.398438 15.078125 -20.359375 C 14.722656 -20.316406 14.367188 -20.25 14.015625 -20.15625 C 14.367188 -20.875 14.578125 -21.460938 14.640625 -21.921875 C 14.710938 -22.390625 14.726562 -22.757812 14.6875 -23.03125 C 14.644531 -23.34375 14.554688 -23.585938 14.421875 -23.765625 C 13.929688 -24.160156 13.070312 -23.835938 11.84375 -22.796875 C 10.625 -21.753906 9.210938 -19.828125 7.609375 -17.015625 C 6.941406 -15.859375 6.40625 -14.625 6 -13.3125 C 5.601562 -12 5.328125 -10.765625 5.171875 -9.609375 C 5.015625 -8.453125 4.976562 -7.441406 5.0625 -6.578125 C 5.15625 -5.710938 5.335938 -5.144531 5.609375 -4.875 C 6.097656 -4.382812 6.65625 -4.148438 7.28125 -4.171875 C 7.90625 -4.191406 8.535156 -4.367188 9.171875 -4.703125 C 9.816406 -5.035156 10.460938 -5.46875 11.109375 -6 C 11.753906 -6.539062 12.332031 -7.097656 12.84375 -7.671875 C 13.363281 -8.253906 13.789062 -8.789062 14.125 -9.28125 C 14.457031 -9.769531 14.644531 -10.125 14.6875 -10.34375 Z M 14.6875 -10.34375 "/></g></g></g><g fill="#425af5" fill-opacity="1"><g transform="translate(414.23402, 194.82053)"><g><path d="M 24.640625 -16.890625 C 24.816406 -17.160156 25.046875 -17.328125 25.328125 -17.390625 C 25.617188 -17.453125 25.851562 -17.414062 26.03125 -17.28125 C 26.207031 -17.15625 26.304688 -16.9375 26.328125 -16.625 C 26.359375 -16.3125 26.238281 -15.890625 25.96875 -15.359375 C 25.082031 -13.660156 23.914062 -11.832031 22.46875 -9.875 C 21.019531 -7.914062 19.492188 -6.078125 17.890625 -4.359375 C 16.285156 -2.648438 14.726562 -1.238281 13.21875 -0.125 C 11.707031 0.976562 10.4375 1.53125 9.40625 1.53125 C 7.9375 1.53125 6.710938 1.238281 5.734375 0.65625 C 4.753906 0.0820312 3.988281 -0.625 3.4375 -1.46875 C 2.882812 -2.3125 2.492188 -3.234375 2.265625 -4.234375 C 2.046875 -5.234375 1.976562 -6.160156 2.0625 -7.015625 C 2.113281 -7.722656 2.269531 -9 2.53125 -10.84375 C 2.800781 -12.695312 3.15625 -14.832031 3.59375 -17.25 C 4.039062 -19.675781 4.539062 -22.28125 5.09375 -25.0625 C 5.65625 -27.84375 6.25 -30.523438 6.875 -33.109375 C 6.113281 -33.023438 5.351562 -32.9375 4.59375 -32.84375 C 3.84375 -32.757812 3.15625 -32.71875 2.53125 -32.71875 C 1.113281 -32.71875 -0.226562 -32.882812 -1.5 -33.21875 C -2.769531 -33.550781 -3.71875 -33.875 -4.34375 -34.1875 C -4.695312 -34.363281 -4.847656 -34.617188 -4.796875 -34.953125 C -4.753906 -35.285156 -4.625 -35.617188 -4.40625 -35.953125 C -4.1875 -36.285156 -3.910156 -36.570312 -3.578125 -36.8125 C -3.242188 -37.0625 -2.941406 -37.1875 -2.671875 -37.1875 C -1.828125 -37.09375 -0.914062 -37.007812 0.0625 -36.9375 C 1.039062 -36.875 2.109375 -36.867188 3.265625 -36.921875 C 4.117188 -36.960938 4.929688 -37.023438 5.703125 -37.109375 C 6.484375 -37.203125 7.253906 -37.316406 8.015625 -37.453125 C 8.585938 -39.585938 9.148438 -41.441406 9.703125 -43.015625 C 10.265625 -44.597656 10.769531 -45.703125 11.21875 -46.328125 C 11.351562 -46.546875 11.648438 -46.734375 12.109375 -46.890625 C 12.578125 -47.046875 13.078125 -47.15625 13.609375 -47.21875 C 14.148438 -47.289062 14.664062 -47.289062 15.15625 -47.21875 C 15.644531 -47.15625 16 -46.992188 16.21875 -46.734375 C 16.445312 -46.378906 16.535156 -45.46875 16.484375 -44 C 16.441406 -42.53125 16.195312 -40.660156 15.75 -38.390625 C 17.625 -38.390625 19.28125 -38.285156 20.71875 -38.078125 C 22.164062 -37.878906 23.398438 -37.65625 24.421875 -37.40625 C 25.453125 -37.164062 26.28125 -36.921875 26.90625 -36.671875 C 27.53125 -36.429688 28 -36.269531 28.3125 -36.1875 C 28.613281 -36.09375 28.773438 -35.867188 28.796875 -35.515625 C 28.828125 -35.160156 28.765625 -34.789062 28.609375 -34.40625 C 28.453125 -34.03125 28.191406 -33.707031 27.828125 -33.4375 C 27.472656 -33.175781 27.078125 -33.085938 26.640625 -33.171875 C 26.191406 -33.222656 25.6875 -33.3125 25.125 -33.4375 C 24.570312 -33.570312 23.90625 -33.679688 23.125 -33.765625 C 22.351562 -33.859375 21.429688 -33.953125 20.359375 -34.046875 C 19.296875 -34.140625 18.050781 -34.1875 16.625 -34.1875 C 16.351562 -34.1875 16.050781 -34.171875 15.71875 -34.140625 C 15.382812 -34.117188 15.039062 -34.109375 14.6875 -34.109375 C 14.507812 -33.398438 14.34375 -32.695312 14.1875 -32 C 14.03125 -31.3125 13.816406 -30.59375 13.546875 -29.84375 C 12.972656 -28.0625 12.304688 -26.125 11.546875 -24.03125 C 10.878906 -22.207031 10.078125 -20.113281 9.140625 -17.75 C 8.210938 -15.394531 7.171875 -12.882812 6.015625 -10.21875 C 5.742188 -8.300781 5.773438 -6.84375 6.109375 -5.84375 C 6.441406 -4.84375 6.851562 -4.117188 7.34375 -3.671875 C 7.925781 -3.179688 8.640625 -2.914062 9.484375 -2.875 C 10.148438 -2.78125 10.957031 -3.007812 11.90625 -3.5625 C 12.863281 -4.125 13.851562 -4.867188 14.875 -5.796875 C 15.90625 -6.734375 16.941406 -7.757812 17.984375 -8.875 C 19.035156 -9.988281 20.003906 -11.078125 20.890625 -12.140625 C 21.785156 -13.210938 22.566406 -14.179688 23.234375 -15.046875 C 23.898438 -15.921875 24.367188 -16.535156 24.640625 -16.890625 Z M 24.640625 -16.890625 "/></g></g></g><g fill="#425af5" fill-opacity="1"><g transform="translate(430.072334, 194.82053)"><g><path d="M 14.6875 -39.3125 C 14.550781 -38.820312 14.289062 -38.34375 13.90625 -37.875 C 13.53125 -37.414062 13.109375 -37.039062 12.640625 -36.75 C 12.179688 -36.457031 11.707031 -36.265625 11.21875 -36.171875 C 10.726562 -36.085938 10.328125 -36.179688 10.015625 -36.453125 C 9.078125 -37.160156 8.585938 -37.925781 8.546875 -38.75 C 8.503906 -39.570312 8.703125 -40.347656 9.140625 -41.078125 C 9.585938 -41.816406 10.144531 -42.441406 10.8125 -42.953125 C 11.476562 -43.460938 12.054688 -43.765625 12.546875 -43.859375 C 13.035156 -43.953125 13.445312 -43.851562 13.78125 -43.5625 C 14.113281 -43.269531 14.367188 -42.890625 14.546875 -42.421875 C 14.722656 -41.953125 14.820312 -41.425781 14.84375 -40.84375 C 14.875 -40.269531 14.820312 -39.757812 14.6875 -39.3125 Z M 5.46875 -25.09375 C 5.695312 -25.363281 6.117188 -25.585938 6.734375 -25.765625 C 7.359375 -25.941406 8.003906 -26.085938 8.671875 -26.203125 C 9.347656 -26.316406 9.960938 -26.382812 10.515625 -26.40625 C 11.066406 -26.425781 11.390625 -26.414062 11.484375 -26.375 C 11.523438 -26.320312 11.410156 -25.847656 11.140625 -24.953125 C 10.878906 -24.066406 10.546875 -23.023438 10.140625 -21.828125 C 9.742188 -20.628906 9.320312 -19.394531 8.875 -18.125 C 8.4375 -16.851562 8.101562 -15.816406 7.875 -15.015625 C 7.65625 -14.210938 7.390625 -13.3125 7.078125 -12.3125 C 6.765625 -11.3125 6.484375 -10.332031 6.234375 -9.375 C 5.992188 -8.414062 5.828125 -7.515625 5.734375 -6.671875 C 5.648438 -5.828125 5.71875 -5.179688 5.9375 -4.734375 C 6.164062 -4.203125 6.410156 -3.835938 6.671875 -3.640625 C 6.941406 -3.441406 7.234375 -3.34375 7.546875 -3.34375 C 8.429688 -3.34375 9.550781 -3.832031 10.90625 -4.8125 C 12.269531 -5.789062 13.648438 -6.957031 15.046875 -8.3125 C 16.453125 -9.664062 17.753906 -11.039062 18.953125 -12.4375 C 20.160156 -13.84375 21.050781 -14.972656 21.625 -15.828125 C 21.976562 -16.265625 22.34375 -16.550781 22.71875 -16.6875 C 23.101562 -16.820312 23.414062 -16.800781 23.65625 -16.625 C 23.90625 -16.445312 24.039062 -16.15625 24.0625 -15.75 C 24.082031 -15.351562 23.9375 -14.890625 23.625 -14.359375 C 22.914062 -13.109375 21.867188 -11.625 20.484375 -9.90625 C 19.109375 -8.195312 17.640625 -6.550781 16.078125 -4.96875 C 14.523438 -3.394531 13.003906 -2.050781 11.515625 -0.9375 C 10.023438 0.175781 8.8125 0.753906 7.875 0.796875 C 7.125 0.847656 6.378906 0.726562 5.640625 0.4375 C 4.910156 0.144531 4.242188 -0.253906 3.640625 -0.765625 C 3.035156 -1.273438 2.53125 -1.875 2.125 -2.5625 C 1.726562 -3.257812 1.507812 -3.984375 1.46875 -4.734375 C 1.332031 -5.847656 1.332031 -7.375 1.46875 -9.3125 C 1.601562 -11.25 1.847656 -13.226562 2.203125 -15.25 C 2.554688 -17.28125 3.007812 -19.207031 3.5625 -21.03125 C 4.125 -22.851562 4.757812 -24.207031 5.46875 -25.09375 Z M 5.46875 -25.09375 "/></g></g></g><g fill="#425af5" fill-opacity="1"><g transform="translate(444.041873, 194.82053)"><g><path d="M 19.765625 -10.609375 C 19.316406 -8.921875 18.710938 -7.34375 17.953125 -5.875 C 17.203125 -4.40625 16.300781 -3.132812 15.25 -2.0625 C 14.207031 -1 13.03125 -0.171875 11.71875 0.421875 C 10.40625 1.023438 8.96875 1.328125 7.40625 1.328125 C 5.582031 1.328125 4.144531 0.9375 3.09375 0.15625 C 2.050781 -0.613281 1.273438 -1.578125 0.765625 -2.734375 C 0.253906 -3.890625 -0.0507812 -5.15625 -0.15625 -6.53125 C -0.269531 -7.914062 -0.328125 -9.210938 -0.328125 -10.421875 C -0.328125 -11.265625 -0.226562 -12.195312 -0.03125 -13.21875 C 0.164062 -14.238281 0.441406 -15.28125 0.796875 -16.34375 C 1.148438 -17.414062 1.601562 -18.484375 2.15625 -19.546875 C 2.71875 -20.617188 3.378906 -21.601562 4.140625 -22.5 C 4.410156 -23.25 4.820312 -23.914062 5.375 -24.5 C 5.925781 -25.082031 6.566406 -25.5625 7.296875 -25.9375 C 8.035156 -26.3125 8.828125 -26.597656 9.671875 -26.796875 C 10.523438 -27.003906 11.351562 -27.109375 12.15625 -27.109375 C 12.28125 -27.109375 12.398438 -27.082031 12.515625 -27.03125 C 12.628906 -26.988281 12.753906 -26.945312 12.890625 -26.90625 C 13.460938 -26.863281 14.179688 -26.640625 15.046875 -26.234375 C 15.921875 -25.835938 16.769531 -25.238281 17.59375 -24.4375 C 18.414062 -23.632812 19.113281 -22.617188 19.6875 -21.390625 C 20.269531 -20.171875 20.5625 -18.691406 20.5625 -16.953125 C 20.5625 -16.597656 20.535156 -16.164062 20.484375 -15.65625 C 20.441406 -15.144531 20.398438 -14.710938 20.359375 -14.359375 C 21.378906 -14.753906 22.445312 -15.238281 23.5625 -15.8125 C 24.675781 -16.394531 25.753906 -17.007812 26.796875 -17.65625 C 27.847656 -18.300781 28.816406 -18.957031 29.703125 -19.625 C 30.597656 -20.289062 31.3125 -20.890625 31.84375 -21.421875 C 32.289062 -21.828125 32.671875 -22.050781 32.984375 -22.09375 C 33.296875 -22.132812 33.515625 -22.046875 33.640625 -21.828125 C 33.773438 -21.609375 33.796875 -21.296875 33.703125 -20.890625 C 33.617188 -20.492188 33.378906 -20.050781 32.984375 -19.5625 C 32.753906 -19.289062 32.179688 -18.753906 31.265625 -17.953125 C 30.359375 -17.148438 29.28125 -16.28125 28.03125 -15.34375 C 26.789062 -14.414062 25.4375 -13.503906 23.96875 -12.609375 C 22.5 -11.722656 21.097656 -11.054688 19.765625 -10.609375 Z M 8.484375 -20.765625 C 8.347656 -20.359375 8.28125 -19.9375 8.28125 -19.5 C 8.28125 -18.78125 8.320312 -18.03125 8.40625 -17.25 C 8.5 -16.476562 8.722656 -15.78125 9.078125 -15.15625 C 9.429688 -14.53125 10 -14.003906 10.78125 -13.578125 C 11.5625 -13.160156 12.640625 -12.953125 14.015625 -12.953125 C 14.242188 -12.953125 14.46875 -12.960938 14.6875 -12.984375 C 14.90625 -13.003906 15.128906 -13.035156 15.359375 -13.078125 C 15.484375 -13.660156 15.601562 -14.1875 15.71875 -14.65625 C 15.832031 -15.125 15.890625 -15.535156 15.890625 -15.890625 C 15.972656 -16.734375 15.96875 -17.597656 15.875 -18.484375 C 15.789062 -19.378906 15.625 -20.191406 15.375 -20.921875 C 15.132812 -21.660156 14.828125 -22.265625 14.453125 -22.734375 C 14.078125 -23.203125 13.617188 -23.4375 13.078125 -23.4375 C 12.234375 -23.4375 11.421875 -23.203125 10.640625 -22.734375 C 9.867188 -22.265625 9.148438 -21.609375 8.484375 -20.765625 Z M 4.203125 -9.015625 C 4.203125 -8.210938 4.242188 -7.421875 4.328125 -6.640625 C 4.421875 -5.859375 4.601562 -5.164062 4.875 -4.5625 C 5.144531 -3.96875 5.5 -3.476562 5.9375 -3.09375 C 6.382812 -2.71875 6.960938 -2.53125 7.671875 -2.53125 C 8.472656 -2.53125 9.207031 -2.71875 9.875 -3.09375 C 10.539062 -3.476562 11.140625 -3.96875 11.671875 -4.5625 C 12.210938 -5.164062 12.691406 -5.859375 13.109375 -6.640625 C 13.535156 -7.421875 13.90625 -8.234375 14.21875 -9.078125 C 13.90625 -9.035156 13.601562 -9.003906 13.3125 -8.984375 C 13.03125 -8.960938 12.707031 -8.953125 12.34375 -8.953125 C 10.65625 -8.953125 9.195312 -9.453125 7.96875 -10.453125 C 6.75 -11.453125 5.804688 -12.726562 5.140625 -14.28125 C 4.867188 -13.351562 4.644531 -12.441406 4.46875 -11.546875 C 4.289062 -10.660156 4.203125 -9.816406 4.203125 -9.015625 Z M 4.203125 -9.015625 "/></g></g></g><g fill="#425af5" fill-opacity="1"><g transform="translate(466.153928, 194.82053)"><g><path d="M 19.828125 1.671875 C 18.804688 1.671875 17.925781 1.476562 17.1875 1.09375 C 16.457031 0.71875 15.867188 0.222656 15.421875 -0.390625 C 14.972656 -1.015625 14.679688 -1.738281 14.546875 -2.5625 C 14.421875 -3.394531 14.46875 -4.273438 14.6875 -5.203125 C 14.820312 -5.828125 15.046875 -6.660156 15.359375 -7.703125 C 15.671875 -8.753906 15.992188 -9.890625 16.328125 -11.109375 C 16.660156 -12.335938 16.96875 -13.5625 17.25 -14.78125 C 17.539062 -16.007812 17.726562 -17.125 17.8125 -18.125 C 17.90625 -19.125 17.863281 -19.945312 17.6875 -20.59375 C 17.507812 -21.238281 17.132812 -21.5625 16.5625 -21.5625 C 15.84375 -21.5625 15.101562 -21.328125 14.34375 -20.859375 C 13.59375 -20.390625 12.828125 -19.753906 12.046875 -18.953125 C 11.265625 -18.148438 10.484375 -17.226562 9.703125 -16.1875 C 8.929688 -15.144531 8.164062 -14.066406 7.40625 -12.953125 C 7.007812 -11.441406 6.675781 -10.117188 6.40625 -8.984375 C 6.144531 -7.847656 5.910156 -6.820312 5.703125 -5.90625 C 5.503906 -5 5.316406 -4.195312 5.140625 -3.5 C 4.960938 -2.8125 4.804688 -2.15625 4.671875 -1.53125 C 4.535156 -1.09375 4.132812 -0.660156 3.46875 -0.234375 C 2.800781 0.191406 2.085938 0.535156 1.328125 0.796875 C 0.578125 1.066406 -0.0703125 1.203125 -0.625 1.203125 C -1.1875 1.203125 -1.421875 1 -1.328125 0.59375 C -1.285156 0.332031 -1.140625 -0.265625 -0.890625 -1.203125 C -0.648438 -2.140625 -0.363281 -3.238281 -0.03125 -4.5 C 0.300781 -5.769531 0.644531 -7.117188 1 -8.546875 C 1.351562 -9.972656 1.6875 -11.328125 2 -12.609375 C 2.226562 -13.640625 2.472656 -14.773438 2.734375 -16.015625 C 2.960938 -17.085938 3.242188 -18.332031 3.578125 -19.75 C 3.910156 -21.175781 4.296875 -22.738281 4.734375 -24.4375 C 5.046875 -24.695312 5.367188 -24.90625 5.703125 -25.0625 C 6.035156 -25.21875 6.382812 -25.34375 6.75 -25.4375 C 7.101562 -25.570312 7.476562 -25.660156 7.875 -25.703125 C 8.226562 -25.703125 8.585938 -25.679688 8.953125 -25.640625 C 9.253906 -25.585938 9.570312 -25.503906 9.90625 -25.390625 C 10.25 -25.285156 10.550781 -25.125 10.8125 -24.90625 C 10.675781 -24.59375 10.519531 -24.15625 10.34375 -23.59375 C 10.164062 -23.039062 9.988281 -22.453125 9.8125 -21.828125 C 9.632812 -21.117188 9.410156 -20.382812 9.140625 -19.625 C 9.722656 -20.425781 10.378906 -21.238281 11.109375 -22.0625 C 11.847656 -22.882812 12.648438 -23.628906 13.515625 -24.296875 C 14.378906 -24.960938 15.300781 -25.503906 16.28125 -25.921875 C 17.257812 -26.347656 18.265625 -26.5625 19.296875 -26.5625 C 20.140625 -26.5625 20.894531 -26.316406 21.5625 -25.828125 C 22.226562 -25.335938 22.75 -24.660156 23.125 -23.796875 C 23.507812 -22.929688 23.734375 -21.894531 23.796875 -20.6875 C 23.867188 -19.488281 23.703125 -18.175781 23.296875 -16.75 L 22.5625 -13.8125 C 22.34375 -12.882812 22.066406 -11.785156 21.734375 -10.515625 C 21.398438 -9.242188 20.988281 -7.851562 20.5 -6.34375 C 20.226562 -5.363281 20.125 -4.515625 20.1875 -3.796875 C 20.257812 -3.085938 20.695312 -2.734375 21.5 -2.734375 C 22.300781 -2.734375 23.3125 -3.222656 24.53125 -4.203125 C 25.757812 -5.179688 26.992188 -6.359375 28.234375 -7.734375 C 29.484375 -9.117188 30.664062 -10.535156 31.78125 -11.984375 C 32.894531 -13.429688 33.738281 -14.597656 34.3125 -15.484375 C 34.707031 -16.066406 35.082031 -16.445312 35.4375 -16.625 C 35.800781 -16.800781 36.082031 -16.820312 36.28125 -16.6875 C 36.476562 -16.550781 36.578125 -16.25 36.578125 -15.78125 C 36.578125 -15.320312 36.398438 -14.734375 36.046875 -14.015625 C 35.734375 -13.390625 35.253906 -12.566406 34.609375 -11.546875 C 33.960938 -10.523438 33.191406 -9.4375 32.296875 -8.28125 C 31.410156 -7.125 30.457031 -5.953125 29.4375 -4.765625 C 28.414062 -3.585938 27.347656 -2.519531 26.234375 -1.5625 C 25.117188 -0.613281 24.015625 0.160156 22.921875 0.765625 C 21.835938 1.367188 20.804688 1.671875 19.828125 1.671875 Z M 19.828125 1.671875 "/></g></g></g><g fill="#425af5" fill-opacity="1"><g transform="translate(492.937909, 194.82053)"><g><path d="M 9.40625 -2.265625 C 9.675781 -2.085938 10.019531 -2 10.4375 -2 C 10.863281 -2 11.285156 -2.085938 11.703125 -2.265625 C 12.128906 -2.441406 12.53125 -2.6875 12.90625 -3 C 13.289062 -3.3125 13.570312 -3.710938 13.75 -4.203125 C 13.925781 -4.691406 13.925781 -5.390625 13.75 -6.296875 C 13.570312 -7.210938 13.289062 -8.191406 12.90625 -9.234375 C 12.53125 -10.285156 12.117188 -11.34375 11.671875 -12.40625 C 11.234375 -13.476562 10.859375 -14.460938 10.546875 -15.359375 C 10.273438 -16.023438 10.050781 -16.644531 9.875 -17.21875 C 9.695312 -17.707031 9.53125 -18.1875 9.375 -18.65625 C 9.21875 -19.125 9.097656 -19.445312 9.015625 -19.625 C 8.785156 -19.269531 8.394531 -18.691406 7.84375 -17.890625 C 7.289062 -17.085938 6.691406 -16.25 6.046875 -15.375 C 5.398438 -14.507812 4.785156 -13.707031 4.203125 -12.96875 C 3.628906 -12.238281 3.226562 -11.742188 3 -11.484375 C 2.644531 -11.078125 2.300781 -10.84375 1.96875 -10.78125 C 1.632812 -10.71875 1.351562 -10.785156 1.125 -10.984375 C 0.90625 -11.179688 0.785156 -11.46875 0.765625 -11.84375 C 0.742188 -12.226562 0.910156 -12.6875 1.265625 -13.21875 C 1.535156 -13.570312 1.9375 -14.140625 2.46875 -14.921875 C 3 -15.703125 3.53125 -16.503906 4.0625 -17.328125 C 4.601562 -18.148438 5.09375 -18.882812 5.53125 -19.53125 C 5.976562 -20.175781 6.226562 -20.5625 6.28125 -20.6875 C 6.363281 -21.050781 6.238281 -21.519531 5.90625 -22.09375 C 5.570312 -22.675781 5.515625 -23.34375 5.734375 -24.09375 C 5.921875 -24.71875 6.320312 -25.441406 6.9375 -26.265625 C 7.5625 -27.085938 8.296875 -27.832031 9.140625 -28.5 C 9.992188 -29.164062 10.863281 -29.664062 11.75 -30 C 12.632812 -30.34375 13.4375 -30.332031 14.15625 -29.96875 C 14.726562 -29.613281 15.191406 -29.222656 15.546875 -28.796875 C 15.910156 -28.378906 16.046875 -27.945312 15.953125 -27.5 C 15.867188 -27.28125 15.734375 -26.992188 15.546875 -26.640625 C 15.367188 -26.285156 15.101562 -25.847656 14.75 -25.328125 C 14.394531 -24.816406 13.882812 -24.160156 13.21875 -23.359375 C 13.351562 -22.335938 13.539062 -21.40625 13.78125 -20.5625 C 14.03125 -19.71875 14.265625 -18.984375 14.484375 -18.359375 C 14.753906 -17.597656 15.046875 -16.90625 15.359375 -16.28125 C 15.753906 -15.488281 16.175781 -14.664062 16.625 -13.8125 C 17.070312 -12.96875 17.472656 -12.132812 17.828125 -11.3125 C 18.179688 -10.488281 18.46875 -9.71875 18.6875 -9 C 18.914062 -8.289062 18.984375 -7.691406 18.890625 -7.203125 C 18.753906 -6.453125 18.363281 -5.539062 17.71875 -4.46875 C 17.070312 -3.40625 16.269531 -2.367188 15.3125 -1.359375 C 14.363281 -0.359375 13.273438 0.492188 12.046875 1.203125 C 10.828125 1.910156 9.550781 2.265625 8.21875 2.265625 C 7.28125 2.265625 6.375 1.972656 5.5 1.390625 C 4.632812 0.816406 3.898438 0.144531 3.296875 -0.625 C 2.703125 -1.40625 2.257812 -2.175781 1.96875 -2.9375 C 1.675781 -3.695312 1.644531 -4.273438 1.875 -4.671875 C 2.132812 -5.203125 2.375 -5.625 2.59375 -5.9375 C 2.820312 -6.25 3.160156 -6.609375 3.609375 -7.015625 C 3.785156 -7.140625 4.003906 -7.296875 4.265625 -7.484375 C 4.492188 -7.609375 4.804688 -7.738281 5.203125 -7.875 C 5.609375 -8.007812 6.078125 -8.164062 6.609375 -8.34375 C 7.054688 -6.96875 7.457031 -5.890625 7.8125 -5.109375 C 8.164062 -4.328125 8.453125 -3.710938 8.671875 -3.265625 C 8.941406 -2.773438 9.1875 -2.441406 9.40625 -2.265625 Z M 9.40625 -2.265625 "/></g></g></g></svg>